<svg width="130" height="100" viewBox="0 0 130 100" fill="none" xmlns="http://www.w3.org/2000/svg">
<g clip-path="url(#clip0_2033_5124)">
<path d="M75 0H0V1.875H75V0Z" fill="#359E9A"/>
<path d="M75 36.5625H2.93491e-06V38.4375H75V36.5625Z" fill="#359E9A"/>
<path d="M75 18.2809H2.93491e-06V20.1559H75V18.2809Z" fill="#359E9A"/>
<path d="M75 27.4214H2.93491e-06V29.2964H75V27.4214Z" fill="#359E9A"/>
<path d="M75 9.14051H2.93491e-06V11.0155H75V9.14051Z" fill="#359E9A"/>
<path d="M75 45.703H2.93491e-06V47.578H75V45.703Z" fill="#359E9A"/>
<path d="M75 54.8434H2.93491e-06V56.7184H75V54.8434Z" fill="#359E9A"/>
<path d="M75 63.9839H2.93491e-06V65.8589H75V63.9839Z" fill="#359E9A"/>
<path d="M75 73.125H2.93491e-06V75H75V73.125Z" fill="#359E9A"/>
<path d="M75 75H73.125V150H75L75 75Z" fill="#359E9A"/>
<path d="M38.4375 75H36.5625V150H38.4375V75Z" fill="#359E9A"/>
<path d="M56.7189 75H54.8439V150H56.7189V75Z" fill="#359E9A"/>
<path d="M47.578 75H45.703V150H47.578V75Z" fill="#359E9A"/>
<path d="M65.8595 75H63.9845V150H65.8595V75Z" fill="#359E9A"/>
<path d="M29.297 75H27.422V150H29.297V75Z" fill="#359E9A"/>
<path d="M20.1564 75H18.2814V150H20.1564V75Z" fill="#359E9A"/>
<path d="M11.0155 75H9.14051V150H11.0155V75Z" fill="#359E9A"/>
<path d="M1.875 75H2.93491e-06V150H1.875V75Z" fill="#359E9A"/>
<path d="M150 2.10814e-06H148.125V75H150V2.10814e-06Z" fill="#359E9A"/>
<path d="M113.438 2.10814e-06H111.563V75H113.438V2.10814e-06Z" fill="#359E9A"/>
<path d="M131.719 2.10814e-06H129.844V75H131.719V2.10814e-06Z" fill="#359E9A"/>
<path d="M122.578 2.10814e-06H120.703V75H122.578V2.10814e-06Z" fill="#359E9A"/>
<path d="M140.86 2.10814e-06H138.985V75H140.86V2.10814e-06Z" fill="#359E9A"/>
<path d="M104.297 2.10814e-06H102.422V75H104.297V2.10814e-06Z" fill="#359E9A"/>
<path d="M95.1564 2.10814e-06H93.2814V75H95.1564V2.10814e-06Z" fill="#359E9A"/>
<path d="M86.0155 2.10814e-06H84.1405V75H86.0155V2.10814e-06Z" fill="#359E9A"/>
<path d="M76.875 2.10814e-06L75 0V75L76.875 75V2.10814e-06Z" fill="#359E9A"/>
<path d="M150 75L75 75L75 76.875H150V75Z" fill="#359E9A"/>
<path d="M150 111.562H75V113.438H150V111.562Z" fill="#359E9A"/>
<path d="M150 93.2809H75V95.1559H150V93.2809Z" fill="#359E9A"/>
<path d="M150 102.421H75V104.296H150V102.421Z" fill="#359E9A"/>
<path d="M150 84.1405H75V86.0155H150V84.1405Z" fill="#359E9A"/>
<path d="M150 120.703H75V122.578H150V120.703Z" fill="#359E9A"/>
<path d="M150 129.843H75V131.718H150V129.843Z" fill="#359E9A"/>
<path d="M150 138.984H75V140.859H150V138.984Z" fill="#359E9A"/>
<path d="M150 148.125H75V150L150 150V148.125Z" fill="#359E9A"/>
</g>
<defs>
<clipPath id="clip0_2033_5124">
<rect width="130" height="100" fill="white"/>
</clipPath>
</defs>
</svg>
