<svg width="130" height="100" viewBox="0 0 130 100" fill="none" xmlns="http://www.w3.org/2000/svg">
<g clip-path="url(#clip0_2033_6404)">
<path d="M64.429 109.193C69.854 109.748 121.42 109.553 123.723 108.995C124.302 101.828 124.046 77.7294 123.387 75.5671H64.429V109.193ZM100.83 38.9675C95.3802 38.3945 43.8089 38.5996 41.5335 39.1737C40.9542 46.336 41.2095 70.4461 41.8677 72.6015H100.83V38.9675ZM62.1798 75.578C61.5034 75.4969 61.0881 75.4032 60.6728 75.4037C41.3432 75.4254 22.0131 75.4557 2.68301 75.4916C2.59444 75.4916 2.50192 75.5888 2.41907 75.6517C2.33223 75.7168 2.25455 75.7956 2.2134 75.8316V109.275C2.79154 109.342 3.20801 109.431 3.6245 109.431C22.9546 109.412 42.2847 109.386 61.6154 109.353C61.7045 109.353 61.7988 109.261 61.8822 109.199C61.9702 109.135 62.0473 109.056 62.1798 108.938V75.578ZM88.6728 145.888C94.3285 146.427 145.64 146.231 147.992 145.684V111.643H88.6728V145.888ZM85.7615 111.696C79.2911 111.122 28.7606 111.352 26.4412 111.937V145.95H85.7615V111.696ZM2.11228 36.6772C3.05718 36.6772 3.69647 36.6777 4.33516 36.6766C23.4391 36.6497 42.5429 36.6223 61.6468 36.588C61.7342 36.588 61.8256 36.4847 61.9056 36.419C61.9896 36.3499 62.0627 36.267 62.1387 36.1887C62.5654 28.0199 62.3815 4.90038 61.8416 2.11992C61.2378 2.09255 60.6002 2.03709 59.9621 2.03826C40.8582 2.06283 21.7549 2.09309 2.651 2.13024C2.56475 2.13024 2.47279 2.23655 2.39393 2.30619C2.31279 2.3782 2.24483 2.46504 2.11228 2.60955V36.6772ZM0.168167 38.715V0.146147C1.05427 0.0930226 1.78838 0.0107865 2.52247 0.0107865C21.96 0.00397106 41.3975 0.00504896 60.8356 0.00562597C61.3817 0.00562597 61.929 -0.0137305 62.4729 0.0193642C63.6486 0.0913694 64.2445 0.74662 64.2702 1.91378C64.2873 2.6776 64.2799 3.4425 64.2799 4.20688V36.4956C65.4042 36.563 66.3497 36.6681 67.2957 36.6692C77.9977 36.6812 88.699 36.6766 99.401 36.6772C100.165 36.6772 100.93 36.6784 101.694 36.6858C102.884 36.6978 103.503 37.3388 103.578 38.4911C103.627 39.252 103.595 40.0192 103.595 40.7836C103.596 50.2836 103.595 59.7842 103.595 69.2847V72.7758H106.781C111.587 72.7758 116.392 72.8072 121.196 72.7672C126.13 72.7255 125.936 72.6827 125.923 77.3375C125.896 86.8381 125.915 96.3386 125.914 105.839V109.43C134.035 109.455 141.939 109.427 150 109.447V147.036C149.938 147.099 149.866 147.182 149.782 147.252C149.702 147.319 149.613 147.421 149.524 147.424C148.435 147.468 147.345 147.524 146.256 147.524C105.754 147.529 65.2534 147.529 24.6011 147.529C23.9041 144.478 24.3565 141.547 24.2783 138.65C24.1954 135.595 24.2594 132.535 24.2594 129.478V111.593H0.801173C0.483554 111.261 0.40471 111.184 0.332739 111.102C0.263036 111.022 0.141329 110.937 0.140769 110.854C0.0882049 99.3921 0.0447919 87.9304 0.00193952 76.468C-0.00207093 75.3911 0.00138162 74.3137 0.00138162 72.9032C3.43483 72.6587 6.67631 72.8089 9.90752 72.7815C13.1833 72.7541 16.4596 72.7758 19.7354 72.7758H39.1581V39.0155C36.677 38.3991 34.0759 38.7973 31.5097 38.7299C28.8903 38.6613 26.2681 38.715 23.6476 38.715H0.168167Z" fill="#F1503C"/>
</g>
<defs>
<clipPath id="clip0_2033_6404">
<rect width="130" height="100" fill="white"/>
</clipPath>
</defs>
</svg>
