<svg width="130" height="100" viewBox="0 0 130 100" fill="none" xmlns="http://www.w3.org/2000/svg">
<g clip-path="url(#clip0_2033_4592)">
<path d="M56.4368 14.347C60.8981 10.9111 65.3187 7.50684 69.787 4.06582L75.0642 0.00193216L77.1378 1.60265C82.6539 5.86088 88.1663 10.1162 93.7421 14.4209C97.0691 11.8458 100.387 9.27777 103.738 6.68368L112.373 0L131.05 14.3129C132.016 13.5871 132.975 12.8589 133.931 12.1331L133.932 12.1325C136.105 10.4831 138.262 8.84548 140.448 7.2761C141.477 6.53756 142.466 5.7031 143.457 4.86619C145.391 3.23405 147.335 1.59264 149.61 0.635367C150.496 2.71757 149.485 3.54256 148.611 4.25587L148.535 4.31732C147.402 5.24528 146.23 6.09689 145.058 6.94847L145.056 6.94958C144.53 7.332 144.003 7.71476 143.48 8.10408C142.323 8.96588 141.167 9.82871 140.011 10.6915L140.005 10.6957C137.545 12.5313 135.085 14.3673 132.62 16.193C132.235 16.4788 131.83 16.7229 131.441 16.957C131.268 17.0612 131.098 17.1636 130.935 17.2666C129.444 16.1384 127.959 15.0155 126.481 13.8968L126.354 13.8008C122.214 10.669 118.117 7.56928 114.019 4.47328C112.892 3.62193 111.932 3.57776 110.668 4.56549C106.59 7.75289 102.457 10.8256 98.2735 13.9356C96.7565 15.0633 95.2329 16.1958 93.7031 17.3405C92.238 16.2237 90.7716 15.1072 89.3046 13.9902L89.3009 13.9873C85.2686 10.9171 81.2314 7.84324 77.2047 4.74928C75.8022 3.67186 74.6947 3.56134 73.1266 4.82444C69.3668 7.85444 65.5114 10.6953 61.6562 13.536L61.6548 13.537C60.2674 14.5594 58.8797 15.5819 57.4968 16.613C57.2842 16.7715 57.056 16.8964 56.8046 17.0339C56.6803 17.1019 56.5504 17.173 56.4139 17.2528C55.5609 16.6355 54.7044 16.0206 53.8467 15.405C51.878 13.9918 49.9031 12.5742 47.9493 11.1115C44.9796 8.88782 42.021 6.63572 39.1207 4.27122C37.9325 3.30239 36.9653 3.82593 35.9875 4.54468C35.0587 5.22788 34.1469 5.94795 33.235 6.66809C32.4846 7.26067 31.7341 7.85338 30.9741 8.42556C28.2552 10.4725 25.5295 12.504 22.7367 14.5855C21.5737 15.4523 20.3989 16.3279 19.2083 17.2167C18.9813 17.0785 18.7357 16.9386 18.4794 16.7926C17.8891 16.4563 17.2422 16.0879 16.6356 15.6334C11.7364 11.9603 6.8482 8.26386 1.98093 4.52317C1.2849 3.98829 0.676085 3.22598 0.130623 2.45169C-0.0104735 2.25087 0.165024 1.55047 0.338046 1.18925C0.440751 0.973855 0.873069 0.806516 1.06902 0.903769L1.15183 0.944771C1.99228 1.36081 2.84614 1.7835 3.60982 2.37845C6.14659 4.3534 8.67215 6.3517 11.1976 8.34991C12.866 9.66998 14.5343 10.99 16.2058 12.3033C16.7935 12.7648 17.4 13.1877 18.0443 13.6369C18.3565 13.8546 18.6777 14.0785 19.0099 14.316C19.8627 13.6705 20.717 13.0257 21.5721 12.3803L21.5728 12.3798C23.5141 10.9146 25.4591 9.44656 27.3962 7.96262C27.8887 7.58538 28.3817 7.2089 28.8747 6.83241L28.8782 6.82971C31.2594 5.01119 33.641 3.19232 35.978 1.28647C37.3422 0.174311 38.4136 0.356214 39.7668 1.44817C43.6876 4.61306 47.6556 7.68427 51.6236 10.7554L51.6245 10.7561C52.909 11.7503 54.1936 12.7446 55.4765 13.7419C55.6889 13.9069 55.9166 14.0397 56.1373 14.1683C56.2394 14.2278 56.34 14.2865 56.4368 14.347Z" fill="#1E4D9E"/>
<path d="M129.671 39.2557C130.147 39.5908 130.617 39.9205 131.073 40.2469C132.356 39.3075 133.624 38.3821 134.878 37.4657L134.892 37.4561L134.892 37.4555C138.017 35.1738 141.065 32.9478 144.103 30.7004C145.415 29.7297 146.698 28.6943 147.98 27.659C148.191 27.4886 148.402 27.318 148.613 27.1479C149.885 26.1235 150.005 25.6789 149.492 23.2986C146.569 25.3491 143.746 27.5717 140.945 29.7766C137.616 32.3966 134.319 34.9918 130.925 37.2439C127.578 34.6464 124.296 32.0989 121.054 29.5826L112.427 22.8875L93.7495 37.3272C87.374 32.391 81.2579 27.6557 75.0857 22.8773C68.7945 27.7675 62.6154 32.5704 56.4942 37.3279C52.9213 34.5755 49.4136 31.873 45.9118 29.1752L37.7939 22.9209C31.5839 27.7005 25.3879 32.4693 19.1924 37.2376C16.2367 35.3458 13.461 33.1018 10.6586 30.8362C7.33857 28.1523 3.981 25.4379 0.242341 23.243C0.242341 23.6661 0.220237 24.0354 0.201055 24.356C0.16543 24.9513 0.139887 25.3781 0.284763 25.6675C0.61732 26.33 1.1897 26.8587 1.73916 27.2786C6.17632 30.6673 10.623 34.0358 15.1012 37.4282L15.1057 37.4316L15.1069 37.4326C16.3422 38.3684 17.5799 39.306 18.8205 40.2463C19.0171 40.1406 19.2157 40.0449 19.4127 39.9501C19.8312 39.7485 20.2427 39.5504 20.6128 39.2661L22.036 38.1741C26.585 34.6841 31.1341 31.194 35.641 27.6184C37.0086 26.534 38.1638 26.517 39.508 27.6058C41.8624 29.5124 44.2706 31.3155 46.6798 33.111C48.93 34.7873 51.1913 36.4395 53.4438 38.0853L53.4461 38.087L53.4481 38.0884L53.4651 38.1008L53.469 38.1037C54.4218 38.7998 55.373 39.4948 56.3212 40.1901C56.48 40.094 56.6251 40.011 56.76 39.9338C57.0195 39.7852 57.2415 39.6581 57.4495 39.5023C58.6199 38.6236 59.7911 37.7463 60.9624 36.869C65.1685 33.7183 69.375 30.5674 73.5491 27.35C74.5512 26.577 75.322 26.3376 76.3611 27.17C79.2763 29.5048 82.225 31.7746 85.1916 34.0034C87.1355 35.4637 89.0987 36.8826 91.0545 38.2962C91.918 38.9204 92.78 39.5434 93.6384 40.1686C93.9182 39.9932 94.1896 39.8315 94.4532 39.6744C94.9994 39.349 95.512 39.0436 95.9962 38.6781C97.0919 37.8505 98.1895 37.0266 99.2871 36.2028L99.2914 36.1996C103.087 33.3508 106.882 30.502 110.598 27.494C111.972 26.3819 112.997 26.5296 114.191 27.4504C115.787 28.6818 117.381 29.9186 118.974 31.1553L118.98 31.1595L118.981 31.1606C121.439 33.0682 123.897 34.9758 126.365 36.8637C127.463 37.7041 128.587 38.4937 129.671 39.2557Z" fill="#1E4D9E"/>
<path d="M149.206 49.6248C150.182 48.8998 150.164 48.0649 149.658 46.1627C146.34 48.3225 143.222 50.7982 140.14 53.2447C137.086 55.6691 134.068 58.0649 130.928 60.0965C124.691 55.2949 118.64 50.6359 112.482 45.8942C107.909 49.3799 103.357 52.8495 98.806 56.3178L93.753 60.1692C90.8684 57.9675 88.0069 55.7834 85.1621 53.612L84.9711 53.4661L84.9688 53.4644L84.4258 53.0499C81.2839 50.6517 78.1618 48.2687 75.0508 45.8942C70.8703 49.1061 66.7364 52.2818 62.6436 55.4258L56.4403 60.1913C54.8941 59.013 53.3669 57.859 51.8555 56.7169L51.8544 56.716L51.8537 56.7155C48.4442 54.139 45.1146 51.6229 41.8255 49.0249L41.4808 48.7524C39.4203 47.1228 38.5245 46.4144 37.6549 46.4627C36.9861 46.4998 36.3328 46.9844 35.177 47.8418C34.7239 48.178 34.1932 48.5716 33.5543 49.0179C30.1621 51.3873 26.8862 54.0241 23.5606 56.701C22.0971 57.879 20.6234 59.0652 19.1265 60.2393C18.3651 59.6518 17.6066 59.0655 16.8497 58.4807L16.8484 58.4797C15.1311 57.1526 13.4229 55.8324 11.7115 54.5193C10.5499 53.6281 9.38647 52.7406 8.22313 51.8533L8.22011 51.851C6.19021 50.3026 4.16033 48.7542 2.14045 47.1857C1.07445 46.3585 0.418818 46.6142 0 48.4375C0.190633 48.6178 0.382433 48.8091 0.577224 49.0034C1.00598 49.4309 1.44937 49.8731 1.92657 50.2444C5.30665 52.8744 8.69334 55.4909 12.08 58.1073C13.8688 59.4893 15.6575 60.8713 17.4453 62.2552C18.3986 62.9929 19.309 63.1337 20.3266 62.343C22.0538 61.0001 23.7992 59.6946 25.5444 58.3891L25.5464 58.3876C26.3704 57.7712 27.1944 57.1549 28.0165 56.5346C30.2503 54.8488 32.4827 53.1605 34.7155 51.472L34.8373 51.3798C35.7534 50.687 36.6696 49.9942 37.5859 49.3015C40.6174 51.1845 43.4484 53.4486 46.2599 55.6971C49.6088 58.3754 52.9301 61.0316 56.5295 62.9954C56.9854 62.6934 57.428 62.4113 57.8589 62.1367C58.7591 61.5629 59.6082 61.0218 60.4191 60.4004C64.8845 56.9767 69.3324 53.5158 73.7629 50.0202C74.6778 49.2983 75.4442 49.299 76.3486 50.034C78.8595 52.0746 81.3884 54.0829 83.9491 56.0211C86.1775 57.7087 88.4246 59.3563 90.7271 61.0445C91.7259 61.7767 92.735 62.5166 93.7575 63.2708C96.8894 60.919 99.9943 58.5872 103.067 56.2797L103.564 55.9063C106.548 53.6655 109.501 51.4478 112.418 49.2572C113.957 50.4097 115.481 51.5172 116.985 52.6101L116.986 52.6106C120.49 55.1576 123.886 57.6254 127.117 60.3997C129.892 62.7819 131.979 63.1053 134.846 60.6277C138.431 57.529 142.2 54.768 145.967 52.0086C147.048 51.2165 148.13 50.4246 149.206 49.6248Z" fill="#1E4D9E"/>
<path d="M56.4368 83.5723C60.8741 80.1549 65.2712 76.7688 69.715 73.3466L75.0642 69.2273L77.876 71.3979C83.1459 75.466 88.4151 79.5336 93.7421 83.6462C97.0545 81.0824 100.358 78.5256 103.694 75.9431L112.373 69.2253L121.497 76.2175C124.659 78.6408 127.842 81.0799 131.05 83.5382C132.016 82.8125 132.975 82.0843 133.931 81.3585L133.932 81.3579C136.105 79.7085 138.262 78.0708 140.448 76.5014C141.477 75.7629 142.466 74.9285 143.457 74.0917C145.391 72.4595 147.335 70.818 149.61 69.8607C150.496 71.9429 149.485 72.7679 148.611 73.4812L148.535 73.5427C147.402 74.4706 146.23 75.3222 145.058 76.1737C144.531 76.5566 144.004 76.9396 143.48 77.3294C142.328 78.1879 141.176 79.0473 140.024 79.9068L140.005 79.921L140.003 79.9227C137.544 81.7579 135.084 83.5931 132.62 85.4183C132.235 85.7041 131.83 85.9482 131.441 86.1823C131.268 86.2865 131.098 86.3889 130.935 86.492C129.407 85.3359 127.886 84.1855 126.371 83.0394L126.347 83.0207C122.21 79.8907 118.115 76.7928 114.019 73.6986C112.892 72.8473 111.932 72.8031 110.668 73.7908C106.591 76.9781 102.457 80.0507 98.2741 83.1604L98.2721 83.1619C96.7556 84.2893 95.2325 85.4215 93.7031 86.5659C92.238 85.449 90.7716 84.3325 89.3046 83.2155L89.3038 83.2149C85.2704 80.1439 81.2325 77.0694 77.2047 73.9746C75.8022 72.8972 74.6947 72.7867 73.1266 74.0498C69.3667 77.0798 65.5113 79.9207 61.656 82.7615L61.6547 82.7625C60.2675 83.7847 58.8796 84.8074 57.4968 85.8383C57.2842 85.9969 57.056 86.1217 56.8046 86.2593C56.6803 86.3272 56.5504 86.3983 56.4139 86.4781C55.5609 85.8608 54.7044 85.246 53.8467 84.6303C51.8782 83.2173 49.903 81.7994 47.9493 80.3369C44.9796 78.1132 42.021 75.8611 39.1207 73.4966C37.9325 72.5277 36.9653 73.0513 35.9875 73.77C35.0586 74.4533 34.1468 75.1734 33.2349 75.8935C32.4846 76.486 31.734 77.0788 30.9741 77.6509C28.255 79.6981 25.5289 81.7298 22.7359 83.8115L22.7307 83.8153L22.7073 83.8327C21.5539 84.6924 20.3889 85.5607 19.2083 86.442C18.9814 86.3039 18.7359 86.164 18.4797 86.0181C17.8894 85.6819 17.2422 85.3132 16.6356 84.8588C11.7364 81.1857 6.8482 77.4892 1.98093 73.7485C1.2849 73.2136 0.676085 72.4513 0.130623 71.677C-0.0104735 71.4762 0.165024 70.7758 0.338046 70.4146C0.440751 70.1992 0.873069 70.0319 1.06902 70.1291L1.1517 70.17C1.99205 70.5861 2.84624 71.0089 3.60982 71.6038C6.14652 73.5787 8.67201 75.5769 11.1974 77.5751C12.8658 78.8952 14.5343 80.2153 16.2058 81.5286C16.7935 81.9902 17.4 82.413 18.0443 82.8622C18.3566 83.0799 18.6777 83.3039 19.0099 83.5414C19.8614 82.8968 20.7145 82.253 21.5682 81.6086L21.5725 81.6053C23.514 80.14 25.4589 78.672 27.3962 77.188C27.8883 76.8111 28.3808 76.4349 28.8733 76.0588L28.8784 76.0549C31.2595 74.2365 33.6412 72.4175 35.978 70.5118C37.3422 69.3997 38.4136 69.5816 39.7668 70.6735C43.6875 73.8384 47.6555 76.9095 51.6234 79.9807C52.9083 80.9751 54.1932 81.9696 55.4765 82.9673C55.6888 83.1322 55.9166 83.265 56.1373 83.3936C56.2394 83.4532 56.34 83.5118 56.4368 83.5723Z" fill="#1E4D9E"/>
<path d="M129.671 108.481C130.147 108.816 130.617 109.146 131.073 109.472C132.361 108.53 133.632 107.601 134.891 106.682C138.016 104.4 141.064 102.173 144.103 99.9257C145.415 98.955 146.698 97.9196 147.98 96.8842C148.191 96.7138 148.402 96.5434 148.613 96.3732C149.885 95.3489 150.005 94.9043 149.492 92.5239C146.569 94.5745 143.746 96.797 140.945 99.0019C137.616 101.622 134.319 104.217 130.925 106.469C127.35 103.694 123.847 100.976 120.389 98.2924L112.427 92.1128L93.7495 106.553C87.374 101.616 81.2579 96.881 75.0857 92.1027C68.7945 96.9928 62.6154 101.796 56.4942 106.553C53.0119 103.871 49.5916 101.235 46.1783 98.6058L37.7939 92.1463C31.5839 96.9259 25.3879 101.695 19.1924 106.463C16.2367 104.571 13.461 102.327 10.6585 100.062C7.33861 97.3776 3.9809 94.6632 0.242341 92.4683C0.242341 92.8914 0.220237 93.2608 0.201055 93.5813C0.16543 94.1766 0.139887 94.6035 0.284763 94.8929C0.61732 95.5554 1.1897 96.084 1.73916 96.504C6.17707 99.8932 10.6245 103.262 15.1035 106.655L15.1049 106.656L15.2564 106.771C16.4421 107.669 17.63 108.569 18.8205 109.472C19.0171 109.366 19.2157 109.27 19.4127 109.175C19.8312 108.974 20.2427 108.776 20.6128 108.491L22.0365 107.399C26.5852 103.909 31.1343 100.419 35.641 96.8437C37.0086 95.7594 38.1638 95.7423 39.508 96.8311C41.8624 98.7378 44.2706 100.541 46.6798 102.336C48.9298 104.013 51.1909 105.665 53.4433 107.31C54.4045 108.013 55.3647 108.714 56.3212 109.415C56.48 109.319 56.6251 109.236 56.76 109.159C57.0194 109.011 57.2416 108.883 57.4495 108.728C58.6194 107.849 59.79 106.972 60.9607 106.096L60.9631 106.094C65.169 102.943 69.3752 99.7925 73.5491 96.5753C74.5512 95.8023 75.322 95.5629 76.3611 96.3953C79.2763 98.7302 82.225 101 85.1916 103.229C87.1356 104.689 89.0987 106.108 91.0546 107.522C91.918 108.146 92.7801 108.769 93.6384 109.394C93.9181 109.219 94.1893 109.057 94.4528 108.9C94.999 108.575 95.512 108.269 95.9962 107.903C97.0933 107.075 98.1924 106.25 99.2915 105.425L99.2924 105.424C103.087 102.576 106.883 99.727 110.598 96.7194C111.972 95.6072 112.997 95.7549 114.191 96.6758C115.786 97.9065 117.379 99.1427 118.972 100.379L118.976 100.382L118.979 100.385L118.981 100.386C121.439 102.293 123.897 104.201 126.365 106.089C127.463 106.929 128.587 107.719 129.671 108.481Z" fill="#1E4D9E"/>
<path d="M149.206 118.85C150.182 118.125 150.164 117.29 149.658 115.388C146.34 117.548 143.222 120.023 140.14 122.47C137.086 124.894 134.068 127.29 130.928 129.322C124.691 124.52 118.64 119.861 112.482 115.12C108.168 118.407 103.874 121.68 99.5819 124.952L93.753 129.395C90.7977 127.139 87.8667 124.902 84.953 122.678C81.6332 120.144 78.3358 117.627 75.0508 115.12C70.8558 118.343 66.7077 121.529 62.6011 124.684L56.4403 129.417C54.8934 128.238 53.3657 127.083 51.8536 125.941L51.8525 125.94L51.8513 125.939C48.4429 123.363 45.1136 120.847 41.8255 118.25L41.4808 117.978C39.4203 116.348 38.5245 115.64 37.6549 115.688C36.9861 115.725 36.3328 116.21 35.177 117.067C34.7238 117.403 34.1933 117.797 33.5543 118.243C30.1622 120.613 26.8864 123.249 23.5608 125.926C22.0972 127.104 20.6236 128.29 19.1265 129.465C18.366 128.878 17.6083 128.292 16.8523 127.708L16.8515 127.707C15.1332 126.379 13.4239 125.059 11.7115 123.745C10.551 122.854 9.38873 121.968 8.22652 121.081L8.22504 121.08L8.22317 121.079L8.22054 121.077C6.19067 119.528 4.16031 117.98 2.14045 116.411C1.07445 115.584 0.418818 115.84 0 117.663C0.190632 117.843 0.38243 118.034 0.57722 118.229C1.00598 118.656 1.44936 119.098 1.92657 119.47C5.30696 122.1 8.69396 124.717 12.0809 127.333L12.1468 127.384C13.9133 128.749 15.6798 130.114 17.4453 131.481C18.3986 132.218 19.309 132.359 20.3266 131.568C22.0537 130.226 23.7989 128.92 25.5441 127.615C26.3689 126.998 27.1936 126.381 28.0165 125.76C30.2494 124.075 32.4808 122.387 34.7127 120.699L34.7311 120.686C35.6826 119.966 36.6341 119.246 37.5859 118.527C40.6174 120.41 43.4484 122.674 46.26 124.923C49.6088 127.601 52.9302 130.257 56.5295 132.221C56.9852 131.919 57.4278 131.637 57.8586 131.362L57.8593 131.362C58.7592 130.788 59.6084 130.247 60.4191 129.626C64.8845 126.202 69.3324 122.741 73.7629 119.246C74.6778 118.524 75.4442 118.524 76.3486 119.259C78.8595 121.3 81.3884 123.308 83.9491 125.246C86.174 126.931 88.4176 128.576 90.7164 130.262L90.7208 130.265L90.7224 130.266L90.7256 130.269L90.7271 130.27C91.7258 131.002 92.735 131.742 93.7575 132.496C96.9694 130.084 100.153 127.693 103.302 125.328C106.375 123.02 109.415 120.737 112.418 118.483C113.957 119.635 115.481 120.743 116.985 121.835C120.489 124.382 123.886 126.851 127.117 129.625C129.892 132.007 131.979 132.331 134.846 129.853C138.431 126.754 142.2 123.993 145.967 121.234C147.049 120.442 148.13 119.65 149.206 118.85Z" fill="#1E4D9E"/>
<path d="M70.1039 142.272C65.5276 145.797 61.0035 149.281 56.4368 152.798C56.34 152.737 56.2394 152.679 56.1373 152.619C55.9166 152.49 55.6889 152.358 55.4765 152.193C54.1934 151.195 52.9086 150.201 51.6238 149.206L51.6229 149.206C47.6552 146.135 43.6873 143.064 39.7668 139.899C38.4136 138.807 37.3422 138.625 35.978 139.737C33.6411 141.643 31.2597 143.462 28.8787 145.28C28.3845 145.657 27.8899 146.035 27.3962 146.413C25.4602 147.896 23.5166 149.363 21.5765 150.828L21.5752 150.829L21.5724 150.831C20.7173 151.476 19.8628 152.121 19.0099 152.767C18.6778 152.529 18.3567 152.305 18.0445 152.088C17.4001 151.638 16.7936 151.216 16.2058 150.754C14.5354 149.442 12.8681 148.122 11.2008 146.803L11.1967 146.8L11.1952 146.799L11.1942 146.798C8.66991 144.801 6.14546 142.803 3.60982 140.829C2.84618 140.234 1.99236 139.812 1.15195 139.396L1.06902 139.354C0.873069 139.257 0.440751 139.425 0.338046 139.64C0.165024 140.001 -0.0104735 140.702 0.130623 140.902C0.676085 141.677 1.2849 142.439 1.98093 142.974C6.8482 146.715 11.7364 150.411 16.6356 154.084C17.2419 154.538 17.8885 154.907 18.4786 155.243L18.4793 155.243C18.7356 155.389 18.9813 155.529 19.2083 155.667C20.3879 154.787 21.5517 153.919 22.7042 153.06L22.7307 153.041L22.7359 153.037C25.5289 150.955 28.255 148.923 30.9741 146.876C31.7337 146.304 32.4836 145.712 33.2335 145.12L33.2349 145.119C34.1468 144.399 35.0586 143.679 35.9875 142.995C36.9653 142.277 37.9325 141.753 39.1207 142.722C42.021 145.086 44.9796 147.339 47.9493 149.562C49.903 151.025 51.8778 152.442 53.8464 153.855L53.8492 153.857C54.706 154.473 55.5617 155.087 56.4139 155.703C56.5504 155.624 56.6804 155.553 56.8046 155.485C57.056 155.347 57.2843 155.222 57.4968 155.064C58.8795 154.033 60.2666 153.011 61.6538 151.988L61.656 151.987C65.5113 149.146 69.3667 146.305 73.1266 143.275C74.6947 142.012 75.8022 142.123 77.2047 143.2C81.2322 146.295 85.2698 149.369 89.3029 152.44C90.7705 153.557 92.2374 154.674 93.7031 155.791C95.2329 154.647 96.7564 153.514 98.2734 152.386C102.457 149.276 106.59 146.204 110.668 143.016C111.932 142.028 112.892 142.073 114.019 142.924C118.094 146.002 122.168 149.085 126.283 152.198L126.494 152.357C127.968 153.473 129.448 154.592 130.935 155.717C131.098 155.614 131.268 155.512 131.441 155.408C131.83 155.174 132.235 154.929 132.62 154.644C135.086 152.817 137.547 150.98 140.009 149.144C141.166 148.28 142.323 147.417 143.48 146.555C144.003 146.166 144.529 145.783 145.055 145.401L145.058 145.399C146.23 144.548 147.402 143.696 148.535 142.768L148.611 142.707C149.485 141.993 150.496 141.168 149.61 139.086C147.335 140.043 145.391 141.685 143.457 143.317C142.466 144.154 141.477 144.988 140.448 145.727C138.262 147.296 136.105 148.933 133.933 150.583C132.976 151.309 132.016 152.037 131.05 152.764C127.826 150.293 124.627 147.841 121.449 145.406C118.406 143.074 115.382 140.757 112.373 138.451L103.696 145.167C100.359 147.75 97.0553 150.307 93.7421 152.872C87.9894 148.43 82.3041 144.041 76.6125 139.648L75.0642 138.453L70.1039 142.272Z" fill="#1E4D9E"/>
<path d="M131.073 178.698C130.617 178.371 130.147 178.041 129.671 177.706L129.669 177.705C128.586 176.944 127.463 176.154 126.365 175.314C123.896 173.426 121.438 171.518 118.979 169.61L118.976 169.607C117.382 168.37 115.788 167.133 114.191 165.901C112.997 164.98 111.972 164.833 110.598 165.945C106.882 168.953 103.086 171.802 99.2908 174.651C98.192 175.475 97.0931 176.3 95.9962 177.129C95.5124 177.494 95.0003 177.799 94.4547 178.124L94.4539 178.125L94.4529 178.125C94.1894 178.282 93.9181 178.444 93.6384 178.619C92.78 177.994 91.9179 177.371 91.0544 176.747C89.0986 175.333 87.1355 173.914 85.1916 172.454C82.225 170.225 79.2763 167.956 76.3611 165.621C75.322 164.788 74.5512 165.028 73.5491 165.801C69.375 169.018 65.1685 172.169 60.9624 175.32L60.9483 175.33C59.7817 176.204 58.6152 177.078 57.4495 177.953C57.2416 178.109 57.0201 178.236 56.7606 178.384C56.6258 178.461 56.48 178.545 56.3212 178.641C55.3696 177.943 54.4148 177.245 53.4585 176.547L53.4436 176.536C51.1911 174.89 48.9299 173.238 46.6798 171.562C44.2706 169.766 41.8624 167.963 39.508 166.056C38.1638 164.968 37.0086 164.985 35.641 166.069C31.1338 169.645 26.5844 173.135 22.0351 176.625L20.6128 177.717C20.2427 178.001 19.8312 178.199 19.4127 178.401C19.2157 178.496 19.0171 178.591 18.8205 178.697C17.6162 177.784 16.4146 176.874 15.2153 175.965L15.1062 175.883C10.6263 172.489 6.17799 169.119 1.73916 165.729C1.1897 165.309 0.61732 164.781 0.284763 164.118C0.139887 163.829 0.16543 163.402 0.201055 162.807C0.220237 162.486 0.242341 162.117 0.242341 161.694C3.98101 163.889 7.3385 166.603 10.6585 169.287C13.4609 171.552 16.2367 173.796 19.1924 175.688C25.3879 170.92 31.5839 166.151 37.7939 161.372L45.8746 167.597C49.3887 170.305 52.9086 173.016 56.4942 175.779C62.6154 171.021 68.7945 166.218 75.0857 161.328C81.2579 166.106 87.374 170.842 93.7495 175.778L112.427 161.338L130.925 175.695C134.32 173.442 137.616 170.847 140.945 168.227C143.746 166.022 146.569 163.8 149.492 161.749C150.005 164.13 149.885 164.574 148.613 165.599C148.402 165.769 148.191 165.939 147.98 166.11C146.698 167.145 145.415 168.18 144.103 169.151C141.065 171.398 138.017 173.624 134.893 175.906C133.634 176.826 132.361 177.755 131.073 178.698Z" fill="#1E4D9E"/>
<path d="M149.658 184.613C150.164 186.516 150.182 187.35 149.206 188.076C148.13 188.875 147.048 189.667 145.967 190.459C142.2 193.219 138.431 195.98 134.846 199.078C131.979 201.556 129.892 201.233 127.117 198.85C123.886 196.076 120.49 193.608 116.986 191.061C115.482 189.968 113.958 188.861 112.418 187.708C109.426 189.954 106.397 192.229 103.336 194.528C100.176 196.902 96.9809 199.301 93.7575 201.721C92.735 200.967 91.7258 200.227 90.7271 199.495L90.7256 199.494L90.7214 199.491C88.4209 197.804 86.1757 196.158 83.9491 194.472C81.3884 192.534 78.8595 190.525 76.3486 188.485C75.4442 187.75 74.6778 187.749 73.7629 188.471C69.3324 191.967 64.8845 195.427 60.4191 198.851C59.6084 199.472 58.7596 200.013 57.8597 200.587L57.8589 200.587C57.4281 200.862 56.9852 201.144 56.5295 201.446C52.9302 199.482 49.609 196.826 46.2602 194.148C43.4486 191.9 40.6174 189.635 37.5859 187.752C36.6271 188.477 35.6685 189.202 34.7099 189.927C32.479 191.614 30.2485 193.301 28.0165 194.985C27.1975 195.603 26.3766 196.217 25.5557 196.831L25.5531 196.833L25.5447 196.84L25.544 196.84C23.7989 198.145 22.0535 199.451 20.3266 200.794C19.309 201.584 18.3986 201.444 17.4453 200.706C15.6582 199.322 13.8701 197.941 12.0819 196.56L12.08 196.558C8.69337 193.942 5.30666 191.325 1.92657 188.695C1.44931 188.324 1.00601 187.882 0.57721 187.454C0.382424 187.26 0.190628 187.068 0 186.888C0.418818 185.065 1.07445 184.809 2.14045 185.636C4.16021 187.205 6.18984 188.753 8.21962 190.301L8.22275 190.304L8.22499 190.305C9.38772 191.192 10.5505 192.079 11.7115 192.97C13.4238 194.284 15.133 195.605 16.8513 196.933L16.8521 196.933L16.8589 196.938L16.8823 196.957C17.6283 197.533 18.3761 198.111 19.1265 198.69C20.6236 197.516 22.097 196.33 23.5607 195.152C26.8863 192.475 30.1621 189.838 33.5543 187.469C34.1931 187.022 34.7235 186.629 35.1766 186.293C36.3324 185.435 36.9861 184.95 37.6549 184.913C38.5245 184.865 39.4203 185.574 41.4809 187.203L41.8255 187.476C45.1143 190.073 48.4437 192.589 51.8529 195.166L51.8558 195.168C53.3671 196.31 54.8942 197.464 56.4403 198.642L62.533 193.962C66.6618 190.79 70.8326 187.586 75.0508 184.345C78.3377 186.854 81.637 189.372 84.9588 191.907C87.8705 194.13 90.7996 196.366 93.753 198.62L98.6368 194.897C103.244 191.386 107.852 187.874 112.482 184.345C118.64 189.087 124.691 193.746 130.928 198.547C134.068 196.516 137.086 194.12 140.139 191.696L140.14 191.695C143.222 189.249 146.34 186.773 149.658 184.613Z" fill="#1E4D9E"/>
</g>
<defs>
<clipPath id="clip0_2033_4592">
<rect width="130" height="100" fill="white"/>
</clipPath>
</defs>
</svg>
