<svg width="130" height="100" viewBox="0 0 130 100" fill="none" xmlns="http://www.w3.org/2000/svg">
<g clip-path="url(#clip0_2033_4654)">
<g clip-path="url(#clip1_2033_4654)">
<path d="M134.506 97.3462C134.506 96.0473 133.454 94.9943 132.156 94.9943C130.858 94.9943 129.805 96.0473 129.805 97.3462C129.805 98.645 130.858 99.698 132.156 99.698C133.454 99.698 134.506 98.645 134.506 97.3462Z" fill="#8387A3"/>
<path d="M125.209 0C125.198 0 125.189 0.00907998 125.189 0.0201454C125.189 0.0312108 125.198 0.0402908 125.209 0.0402908C125.22 0.0402908 125.229 0.0312108 125.229 0.0201454C125.229 0.00907998 125.22 0 125.209 0Z" fill="#8387A3"/>
<path d="M125.208 6.87488C125.155 6.87488 125.112 6.91804 125.112 6.97123C125.112 7.02441 125.155 7.06757 125.208 7.06757C125.261 7.06757 125.305 7.02441 125.305 6.97123C125.305 6.91804 125.261 6.87488 125.208 6.87488Z" fill="#8387A3"/>
<path d="M125.208 13.7303C125.102 13.7303 125.016 13.8167 125.016 13.9232C125.016 14.0296 125.102 14.1159 125.208 14.1159C125.315 14.1159 125.401 14.0296 125.401 13.9232C125.401 13.8167 125.315 13.7303 125.208 13.7303Z" fill="#8387A3"/>
<path d="M125.516 20.8751C125.516 20.7048 125.379 20.5666 125.208 20.5666C125.038 20.5666 124.9 20.7048 124.9 20.8751C124.9 21.0454 125.038 21.1835 125.208 21.1835C125.379 21.1835 125.516 21.0454 125.516 20.8751Z" fill="#8387A3"/>
<path d="M125.632 27.8272C125.632 27.5929 125.442 27.403 125.208 27.403C124.974 27.403 124.784 27.5929 124.784 27.8272C124.784 28.0613 124.974 28.2512 125.208 28.2512C125.442 28.2512 125.632 28.0613 125.632 27.8272Z" fill="#8387A3"/>
<path d="M125.748 34.779C125.748 34.4808 125.507 34.2391 125.209 34.2391C124.911 34.2391 124.669 34.4808 124.669 34.779C124.669 35.077 124.911 35.3186 125.209 35.3186C125.507 35.3186 125.748 35.077 125.748 34.779Z" fill="#8387A3"/>
<path d="M125.863 41.7309C125.863 41.3689 125.57 41.0754 125.208 41.0754C124.847 41.0754 124.553 41.3689 124.553 41.7309C124.553 42.0927 124.847 42.3862 125.208 42.3862C125.57 42.3862 125.863 42.0927 125.863 41.7309Z" fill="#8387A3"/>
<path d="M125.998 48.6827C125.998 48.2463 125.644 47.8924 125.208 47.8924C124.772 47.8924 124.418 48.2463 124.418 48.6827C124.418 49.1192 124.772 49.4731 125.208 49.4731C125.644 49.4731 125.998 49.1192 125.998 48.6827Z" fill="#8387A3"/>
<path d="M126.172 55.6346C126.172 55.1023 125.74 54.6708 125.209 54.6708C124.677 54.6708 124.245 55.1023 124.245 55.6346C124.245 56.1671 124.677 56.5986 125.209 56.5986C125.74 56.5986 126.172 56.1671 126.172 55.6346Z" fill="#8387A3"/>
<path d="M125.208 63.7239C125.836 63.7239 126.345 63.2147 126.345 62.5865C126.345 61.9584 125.836 61.4492 125.208 61.4492C124.581 61.4492 124.072 61.9584 124.072 62.5865C124.072 63.2147 124.581 63.7239 125.208 63.7239Z" fill="#8387A3"/>
<path d="M125.208 70.8685C125.942 70.8685 126.538 70.273 126.538 69.5385C126.538 68.8039 125.942 68.2084 125.208 68.2084C124.474 68.2084 123.879 68.8039 123.879 69.5385C123.879 70.273 124.474 70.8685 125.208 70.8685Z" fill="#8387A3"/>
<path d="M126.769 76.4904C126.769 75.628 126.07 74.929 125.208 74.929C124.346 74.929 123.648 75.628 123.648 76.4904C123.648 77.3527 124.346 78.0519 125.208 78.0519C126.07 78.0519 126.769 77.3527 126.769 76.4904Z" fill="#8387A3"/>
<path d="M125.208 85.2351C126.198 85.2351 127 84.4324 127 83.4423C127 82.4522 126.198 81.6495 125.208 81.6495C124.219 81.6495 123.417 82.4522 123.417 83.4423C123.417 84.4324 124.219 85.2351 125.208 85.2351Z" fill="#8387A3"/>
<path d="M125.209 92.4569C126.347 92.4569 127.27 91.5334 127.27 90.3942C127.27 89.2551 126.347 88.3316 125.209 88.3316C124.07 88.3316 123.147 89.2551 123.147 90.3942C123.147 91.5334 124.07 92.4569 125.209 92.4569Z" fill="#8387A3"/>
<path d="M125.208 99.6981C126.507 99.6981 127.559 98.6451 127.559 97.3462C127.559 96.0473 126.507 94.9943 125.208 94.9943C123.91 94.9943 122.858 96.0473 122.858 97.3462C122.858 98.6451 123.91 99.6981 125.208 99.6981Z" fill="#8387A3"/>
<path d="M118.262 0.040254C118.273 0.040254 118.282 0.0312702 118.282 0.020188C118.282 0.00910591 118.273 0.00012207 118.262 0.00012207C118.251 0.00012207 118.242 0.00910591 118.242 0.020188C118.242 0.0312702 118.251 0.040254 118.262 0.040254Z" fill="#8387A3"/>
<path d="M118.261 7.06757C118.314 7.06757 118.357 7.02444 118.357 6.97123C118.357 6.91801 118.314 6.87488 118.261 6.87488C118.208 6.87488 118.165 6.91801 118.165 6.97123C118.165 7.02444 118.208 7.06757 118.261 7.06757Z" fill="#8387A3"/>
<path d="M118.261 13.7303C118.155 13.7303 118.068 13.8167 118.068 13.9232C118.068 14.0296 118.155 14.1159 118.261 14.1159C118.367 14.1159 118.454 14.0296 118.454 13.9232C118.454 13.8167 118.367 13.7303 118.261 13.7303Z" fill="#8387A3"/>
<path d="M118.569 20.875C118.569 20.7047 118.431 20.5665 118.261 20.5665C118.091 20.5665 117.953 20.7047 117.953 20.875C117.953 21.0453 118.091 21.1834 118.261 21.1834C118.431 21.1834 118.569 21.0454 118.569 20.875Z" fill="#8387A3"/>
<path d="M118.685 27.8272C118.685 27.5929 118.495 27.403 118.261 27.403C118.027 27.403 117.837 27.5929 117.837 27.8272C117.837 28.0613 118.027 28.2512 118.261 28.2512C118.495 28.2512 118.685 28.0613 118.685 27.8272Z" fill="#8387A3"/>
<path d="M118.8 34.779C118.8 34.4808 118.558 34.2391 118.261 34.2391C117.963 34.2391 117.721 34.4808 117.721 34.779C117.721 35.077 117.963 35.3186 118.261 35.3186C118.558 35.3186 118.8 35.077 118.8 34.779Z" fill="#8387A3"/>
<path d="M118.916 41.7309C118.916 41.3689 118.623 41.0754 118.261 41.0754C117.899 41.0754 117.606 41.3689 117.606 41.7309C117.606 42.0927 117.899 42.3862 118.261 42.3862C118.623 42.3862 118.916 42.0927 118.916 41.7309Z" fill="#8387A3"/>
<path d="M119.051 48.6827C119.051 48.2463 118.697 47.8924 118.261 47.8924C117.825 47.8924 117.471 48.2463 117.471 48.6827C117.471 49.1192 117.825 49.4731 118.261 49.4731C118.697 49.4731 119.051 49.1192 119.051 48.6827Z" fill="#8387A3"/>
<path d="M119.224 55.6346C119.224 55.1023 118.793 54.6708 118.261 54.6708C117.729 54.6708 117.298 55.1023 117.298 55.6346C117.298 56.1671 117.729 56.5986 118.261 56.5986C118.793 56.5986 119.224 56.1671 119.224 55.6346Z" fill="#8387A3"/>
<path d="M119.397 62.5865C119.397 61.9585 118.888 61.4492 118.261 61.4492C117.633 61.4492 117.124 61.9585 117.124 62.5865C117.124 63.2148 117.633 63.7239 118.261 63.7239C118.889 63.7239 119.397 63.2148 119.397 62.5865Z" fill="#8387A3"/>
<path d="M119.59 69.5385C119.59 68.8039 118.995 68.2084 118.261 68.2084C117.527 68.2084 116.931 68.8039 116.931 69.5385C116.931 70.273 117.527 70.8685 118.261 70.8685C118.995 70.8685 119.59 70.273 119.59 69.5385Z" fill="#8387A3"/>
<path d="M119.821 76.4904C119.821 75.628 119.123 74.929 118.261 74.929C117.399 74.929 116.7 75.628 116.7 76.4904C116.7 77.3527 117.399 78.0519 118.261 78.0519C119.123 78.0519 119.821 77.3527 119.821 76.4904Z" fill="#8387A3"/>
<path d="M120.053 83.4423C120.053 82.4521 119.251 81.6494 118.261 81.6494C117.272 81.6494 116.469 82.4521 116.469 83.4423C116.469 84.4325 117.272 85.2351 118.261 85.2351C119.251 85.2351 120.053 84.4325 120.053 83.4423Z" fill="#8387A3"/>
<path d="M120.322 90.3942C120.322 89.2551 119.399 88.3316 118.261 88.3316C117.122 88.3316 116.199 89.2551 116.199 90.3942C116.199 91.5334 117.122 92.4569 118.261 92.4569C119.399 92.4569 120.322 91.5334 120.322 90.3942Z" fill="#8387A3"/>
<path d="M118.261 99.6979C119.559 99.6979 120.611 98.645 120.611 97.3462C120.611 96.0474 119.559 94.9944 118.261 94.9944C116.963 94.9944 115.911 96.0474 115.911 97.3462C115.911 98.645 116.963 99.6979 118.261 99.6979Z" fill="#8387A3"/>
<path d="M111.314 0.0403886C111.326 0.0403886 111.335 0.0313336 111.335 0.0201638C111.335 0.00899392 111.326 -6.10352e-05 111.314 -6.10352e-05C111.303 -6.10352e-05 111.294 0.00899392 111.294 0.0201638C111.294 0.0313336 111.303 0.0403886 111.314 0.0403886Z" fill="#8387A3"/>
<path d="M111.313 6.87488C111.26 6.87488 111.217 6.91804 111.217 6.97123C111.217 7.02441 111.26 7.06757 111.313 7.06757C111.366 7.06757 111.41 7.02441 111.41 6.97123C111.41 6.91804 111.366 6.87488 111.313 6.87488Z" fill="#8387A3"/>
<path d="M111.313 13.7303C111.207 13.7303 111.121 13.8167 111.121 13.9232C111.121 14.0296 111.207 14.1159 111.313 14.1159C111.42 14.1159 111.506 14.0296 111.506 13.9232C111.506 13.8167 111.42 13.7303 111.313 13.7303Z" fill="#8387A3"/>
<path d="M111.621 20.8751C111.621 20.7048 111.484 20.5666 111.313 20.5666C111.143 20.5666 111.005 20.7048 111.005 20.8751C111.005 21.0454 111.143 21.1835 111.313 21.1835C111.483 21.1835 111.621 21.0454 111.621 20.8751Z" fill="#8387A3"/>
<path d="M111.737 27.8272C111.737 27.5929 111.547 27.403 111.313 27.403C111.079 27.403 110.889 27.5929 110.889 27.8272C110.889 28.0613 111.079 28.2512 111.313 28.2512C111.547 28.2512 111.737 28.0613 111.737 27.8272Z" fill="#8387A3"/>
<path d="M111.853 34.779C111.853 34.4808 111.612 34.2391 111.314 34.2391C111.016 34.2391 110.774 34.4808 110.774 34.779C110.774 35.077 111.016 35.3186 111.314 35.3186C111.612 35.3186 111.853 35.077 111.853 34.779Z" fill="#8387A3"/>
<path d="M111.969 41.7309C111.969 41.3689 111.675 41.0754 111.314 41.0754C110.952 41.0754 110.659 41.3689 110.659 41.7309C110.659 42.0927 110.952 42.3862 111.314 42.3862C111.675 42.3862 111.969 42.0927 111.969 41.7309Z" fill="#8387A3"/>
<path d="M112.103 48.6827C112.103 48.2463 111.75 47.8924 111.313 47.8924C110.877 47.8924 110.524 48.2463 110.524 48.6827C110.524 49.1192 110.877 49.4731 111.313 49.4731C111.75 49.4731 112.103 49.1192 112.103 48.6827Z" fill="#8387A3"/>
<path d="M112.277 55.6346C112.277 55.1023 111.845 54.6708 111.313 54.6708C110.782 54.6708 110.35 55.1023 110.35 55.6346C110.35 56.1671 110.782 56.5986 111.313 56.5986C111.845 56.5986 112.277 56.1671 112.277 55.6346Z" fill="#8387A3"/>
<path d="M111.314 63.7239C111.942 63.7239 112.45 63.2147 112.45 62.5865C112.45 61.9584 111.942 61.4492 111.314 61.4492C110.686 61.4492 110.177 61.9584 110.177 62.5865C110.177 63.2147 110.686 63.7239 111.314 63.7239Z" fill="#8387A3"/>
<path d="M111.313 70.8685C112.047 70.8685 112.642 70.273 112.642 69.5385C112.642 68.8039 112.047 68.2084 111.313 68.2084C110.579 68.2084 109.984 68.8039 109.984 69.5385C109.984 70.273 110.579 70.8685 111.313 70.8685Z" fill="#8387A3"/>
<path d="M112.874 76.4904C112.874 75.628 112.175 74.929 111.314 74.929C110.452 74.929 109.753 75.628 109.753 76.4904C109.753 77.3527 110.452 78.0519 111.314 78.0519C112.175 78.0519 112.874 77.3527 112.874 76.4904Z" fill="#8387A3"/>
<path d="M111.314 85.2351C112.303 85.2351 113.105 84.4324 113.105 83.4423C113.105 82.4522 112.303 81.6495 111.314 81.6495C110.324 81.6495 109.522 82.4522 109.522 83.4423C109.522 84.4324 110.324 85.2351 111.314 85.2351Z" fill="#8387A3"/>
<path d="M111.314 92.4569C112.452 92.4569 113.375 91.5334 113.375 90.3942C113.375 89.2551 112.452 88.3316 111.314 88.3316C110.175 88.3316 109.252 89.2551 109.252 90.3942C109.252 91.5334 110.175 92.4569 111.314 92.4569Z" fill="#8387A3"/>
<path d="M111.313 99.6981C112.611 99.6981 113.664 98.6451 113.664 97.3462C113.664 96.0473 112.611 94.9943 111.313 94.9943C110.015 94.9943 108.963 96.0473 108.963 97.3462C108.963 98.6451 110.015 99.6981 111.313 99.6981Z" fill="#8387A3"/>
<path d="M104.367 0.040254C104.378 0.040254 104.387 0.0312702 104.387 0.020188C104.387 0.00910591 104.378 0.00012207 104.367 0.00012207C104.356 0.00012207 104.347 0.00910591 104.347 0.020188C104.347 0.0312702 104.356 0.040254 104.367 0.040254Z" fill="#8387A3"/>
<path d="M104.366 7.06757C104.419 7.06757 104.463 7.02444 104.463 6.97123C104.463 6.91801 104.419 6.87488 104.366 6.87488C104.313 6.87488 104.27 6.91801 104.27 6.97123C104.27 7.02444 104.313 7.06757 104.366 7.06757Z" fill="#8387A3"/>
<path d="M104.366 13.7303C104.259 13.7303 104.173 13.8167 104.173 13.9232C104.173 14.0296 104.259 14.1159 104.366 14.1159C104.472 14.1159 104.558 14.0296 104.558 13.9232C104.558 13.8167 104.472 13.7303 104.366 13.7303Z" fill="#8387A3"/>
<path d="M104.674 20.8751C104.674 20.7048 104.536 20.5666 104.366 20.5666C104.196 20.5666 104.058 20.7048 104.058 20.8751C104.058 21.0454 104.196 21.1835 104.366 21.1835C104.536 21.1835 104.674 21.0454 104.674 20.8751Z" fill="#8387A3"/>
<path d="M104.79 27.8272C104.79 27.5929 104.6 27.403 104.366 27.403C104.132 27.403 103.942 27.5929 103.942 27.8272C103.942 28.0613 104.132 28.2512 104.366 28.2512C104.6 28.2512 104.79 28.0613 104.79 27.8272Z" fill="#8387A3"/>
<path d="M104.905 34.779C104.905 34.4808 104.664 34.2391 104.366 34.2391C104.068 34.2391 103.827 34.4808 103.827 34.779C103.827 35.077 104.068 35.3186 104.366 35.3186C104.664 35.3186 104.905 35.077 104.905 34.779Z" fill="#8387A3"/>
<path d="M105.021 41.7309C105.021 41.3689 104.728 41.0754 104.366 41.0754C104.004 41.0754 103.711 41.3689 103.711 41.7309C103.711 42.0927 104.004 42.3862 104.366 42.3862C104.728 42.3862 105.021 42.0927 105.021 41.7309Z" fill="#8387A3"/>
<path d="M105.156 48.6827C105.156 48.2463 104.802 47.8924 104.366 47.8924C103.93 47.8924 103.576 48.2463 103.576 48.6827C103.576 49.1192 103.93 49.4731 104.366 49.4731C104.802 49.4731 105.156 49.1192 105.156 48.6827Z" fill="#8387A3"/>
<path d="M105.329 55.6346C105.329 55.1023 104.898 54.6708 104.366 54.6708C103.834 54.6708 103.403 55.1023 103.403 55.6346C103.403 56.1671 103.834 56.5986 104.366 56.5986C104.898 56.5986 105.329 56.1671 105.329 55.6346Z" fill="#8387A3"/>
<path d="M104.366 63.7239C104.994 63.7239 105.503 63.2147 105.503 62.5865C105.503 61.9584 104.994 61.4492 104.366 61.4492C103.738 61.4492 103.229 61.9584 103.229 62.5865C103.229 63.2147 103.738 63.7239 104.366 63.7239Z" fill="#8387A3"/>
<path d="M105.695 69.5385C105.695 68.8039 105.1 68.2084 104.366 68.2084C103.632 68.2084 103.037 68.8039 103.037 69.5385C103.037 70.273 103.632 70.8685 104.366 70.8685C105.1 70.8685 105.695 70.273 105.695 69.5385Z" fill="#8387A3"/>
<path d="M105.926 76.4904C105.926 75.628 105.228 74.929 104.366 74.929C103.504 74.929 102.806 75.628 102.806 76.4904C102.806 77.3527 103.504 78.0519 104.366 78.0519C105.228 78.0519 105.926 77.3527 105.926 76.4904Z" fill="#8387A3"/>
<path d="M106.158 83.4423C106.158 82.4521 105.355 81.6494 104.366 81.6494C103.376 81.6494 102.574 82.4521 102.574 83.4423C102.574 84.4325 103.376 85.2351 104.366 85.2351C105.356 85.2351 106.158 84.4325 106.158 83.4423Z" fill="#8387A3"/>
<path d="M106.427 90.3942C106.427 89.2551 105.504 88.3316 104.366 88.3316C103.227 88.3316 102.304 89.2551 102.304 90.3942C102.304 91.5334 103.227 92.4569 104.366 92.4569C105.504 92.4569 106.427 91.5334 106.427 90.3942Z" fill="#8387A3"/>
<path d="M104.366 99.6979C105.664 99.6979 106.716 98.645 106.716 97.3462C106.716 96.0474 105.664 94.9944 104.366 94.9944C103.068 94.9944 102.016 96.0474 102.016 97.3462C102.016 98.645 103.068 99.6979 104.366 99.6979Z" fill="#8387A3"/>
<path d="M97.4192 0.0403886C97.4304 0.0403886 97.4395 0.0313336 97.4395 0.0201638C97.4395 0.00899392 97.4304 -6.10352e-05 97.4192 -6.10352e-05C97.408 -6.10352e-05 97.3989 0.00899392 97.3989 0.0201638C97.3989 0.0313336 97.408 0.0403886 97.4192 0.0403886Z" fill="#8387A3"/>
<path d="M97.4184 7.06757C97.4716 7.06757 97.5147 7.02444 97.5147 6.97123C97.5147 6.91801 97.4716 6.87488 97.4184 6.87488C97.3653 6.87488 97.3221 6.91801 97.3221 6.97123C97.3221 7.02444 97.3653 7.06757 97.4184 7.06757Z" fill="#8387A3"/>
<path d="M97.4185 13.7303C97.3119 13.7303 97.226 13.8167 97.226 13.9232C97.226 14.0296 97.3119 14.1159 97.4185 14.1159C97.5248 14.1159 97.6111 14.0296 97.6111 13.9232C97.6111 13.8167 97.5248 13.7303 97.4185 13.7303Z" fill="#8387A3"/>
<path d="M97.7266 20.8751C97.7266 20.7048 97.5887 20.5666 97.4185 20.5666C97.2483 20.5666 97.1102 20.7048 97.1102 20.8751C97.1102 21.0454 97.2483 21.1835 97.4185 21.1835C97.5887 21.1835 97.7266 21.0454 97.7266 20.8751Z" fill="#8387A3"/>
<path d="M97.8423 27.8272C97.8423 27.5929 97.6527 27.403 97.4186 27.403C97.1845 27.403 96.9946 27.5929 96.9946 27.8272C96.9946 28.0613 97.1845 28.2512 97.4186 28.2512C97.6527 28.2512 97.8423 28.0613 97.8423 27.8272Z" fill="#8387A3"/>
<path d="M97.9578 34.779C97.9578 34.4808 97.7163 34.2391 97.4183 34.2391C97.1203 34.2391 96.8788 34.4808 96.8788 34.779C96.8788 35.077 97.1203 35.3186 97.4183 35.3186C97.7163 35.3186 97.9578 35.077 97.9578 34.779Z" fill="#8387A3"/>
<path d="M98.0735 41.7309C98.0735 41.3689 97.7802 41.0754 97.4186 41.0754C97.057 41.0754 96.7637 41.3689 96.7637 41.7309C96.7637 42.0927 97.057 42.3862 97.4186 42.3862C97.7802 42.3862 98.0735 42.0927 98.0735 41.7309Z" fill="#8387A3"/>
<path d="M98.2083 48.6827C98.2083 48.2463 97.855 47.8924 97.4186 47.8924C96.9821 47.8924 96.6288 48.2463 96.6288 48.6827C96.6288 49.1192 96.9821 49.4731 97.4186 49.4731C97.855 49.4731 98.2083 49.1192 98.2083 48.6827Z" fill="#8387A3"/>
<path d="M98.3818 55.6346C98.3818 55.1023 97.9504 54.6708 97.4185 54.6708C96.8867 54.6708 96.4553 55.1023 96.4553 55.6346C96.4553 56.1671 96.8867 56.5986 97.4185 56.5986C97.9504 56.5986 98.3818 56.1671 98.3818 55.6346Z" fill="#8387A3"/>
<path d="M97.4186 63.7239C98.0463 63.7239 98.5552 63.2147 98.5552 62.5865C98.5552 61.9584 98.0463 61.4492 97.4186 61.4492C96.7908 61.4492 96.2819 61.9584 96.2819 62.5865C96.2819 63.2147 96.7908 63.7239 97.4186 63.7239Z" fill="#8387A3"/>
<path d="M97.4186 70.8685C98.1527 70.8685 98.7478 70.273 98.7478 69.5385C98.7478 68.8039 98.1527 68.2084 97.4186 68.2084C96.6845 68.2084 96.0894 68.8039 96.0894 69.5385C96.0894 70.273 96.6845 70.8685 97.4186 70.8685Z" fill="#8387A3"/>
<path d="M98.9789 76.4904C98.9789 75.628 98.2801 74.929 97.4185 74.929C96.5569 74.929 95.8578 75.628 95.8578 76.4904C95.8578 77.3527 96.5569 78.0519 97.4185 78.0519C98.2801 78.0519 98.9789 77.3527 98.9789 76.4904Z" fill="#8387A3"/>
<path d="M97.4186 85.2351C98.4081 85.2351 99.2102 84.4324 99.2102 83.4423C99.2102 82.4522 98.4081 81.6495 97.4186 81.6495C96.4291 81.6495 95.627 82.4522 95.627 83.4423C95.627 84.4324 96.4291 85.2351 97.4186 85.2351Z" fill="#8387A3"/>
<path d="M97.4188 92.4569C98.5572 92.4569 99.4801 91.5334 99.4801 90.3942C99.4801 89.2551 98.5572 88.3316 97.4188 88.3316C96.2804 88.3316 95.3575 89.2551 95.3575 90.3942C95.3575 91.5334 96.2804 92.4569 97.4188 92.4569Z" fill="#8387A3"/>
<path d="M97.4188 99.6981C98.7168 99.6981 99.7691 98.6451 99.7691 97.3462C99.7691 96.0473 98.7168 94.9943 97.4188 94.9943C96.1207 94.9943 95.0684 96.0473 95.0684 97.3462C95.0684 98.6451 96.1207 99.6981 97.4188 99.6981Z" fill="#8387A3"/>
<path d="M90.4718 0.040254C90.4829 0.040254 90.4919 0.0312702 90.4919 0.020188C90.4919 0.00910591 90.4829 0.00012207 90.4718 0.00012207C90.4607 0.00012207 90.4517 0.00910591 90.4517 0.020188C90.4517 0.0312702 90.4607 0.040254 90.4718 0.040254Z" fill="#8387A3"/>
<path d="M90.4711 7.06757C90.5243 7.06757 90.5674 7.02444 90.5674 6.97123C90.5674 6.91801 90.5243 6.87488 90.4711 6.87488C90.4179 6.87488 90.3748 6.91801 90.3748 6.97123C90.3748 7.02444 90.4179 7.06757 90.4711 7.06757Z" fill="#8387A3"/>
<path d="M90.4711 13.7303C90.3648 13.7303 90.2783 13.8167 90.2783 13.9232C90.2783 14.0296 90.3648 14.1159 90.4711 14.1159C90.5774 14.1159 90.6637 14.0296 90.6637 13.9232C90.6637 13.8167 90.5774 13.7303 90.4711 13.7303Z" fill="#8387A3"/>
<path d="M90.7796 20.8751C90.7796 20.7048 90.6415 20.5666 90.4713 20.5666C90.3011 20.5666 90.163 20.7048 90.163 20.8751C90.163 21.0454 90.3011 21.1835 90.4713 21.1835C90.6415 21.1835 90.7796 21.0454 90.7796 20.8751Z" fill="#8387A3"/>
<path d="M90.8947 27.8272C90.8947 27.5929 90.7051 27.403 90.471 27.403C90.2369 27.403 90.0472 27.5929 90.0472 27.8272C90.0472 28.0613 90.2369 28.2512 90.471 28.2512C90.7051 28.2512 90.8947 28.0613 90.8947 27.8272Z" fill="#8387A3"/>
<path d="M91.0106 34.779C91.0106 34.4808 90.7688 34.2391 90.4711 34.2391C90.1734 34.2391 89.9316 34.4808 89.9316 34.779C89.9316 35.077 90.1734 35.3186 90.4711 35.3186C90.7688 35.3186 91.0106 35.077 91.0106 34.779Z" fill="#8387A3"/>
<path d="M91.1263 41.7309C91.1263 41.3689 90.833 41.0754 90.4711 41.0754C90.1092 41.0754 89.8159 41.3689 89.8159 41.7309C89.8159 42.0927 90.1092 42.3862 90.4711 42.3862C90.833 42.3862 91.1263 42.0927 91.1263 41.7309Z" fill="#8387A3"/>
<path d="M91.2609 48.6827C91.2609 48.2463 90.907 47.8924 90.4708 47.8924C90.0347 47.8924 89.6808 48.2463 89.6808 48.6827C89.6808 49.1192 90.0347 49.4731 90.4708 49.4731C90.907 49.4731 91.2609 49.1192 91.2609 48.6827Z" fill="#8387A3"/>
<path d="M91.4343 55.6346C91.4343 55.1023 91.0032 54.6708 90.4711 54.6708C89.939 54.6708 89.5079 55.1023 89.5079 55.6346C89.5079 56.1671 89.939 56.5986 90.4711 56.5986C91.0032 56.5986 91.4343 56.1671 91.4343 55.6346Z" fill="#8387A3"/>
<path d="M90.4713 63.7239C91.099 63.7239 91.6079 63.2147 91.6079 62.5865C91.6079 61.9584 91.099 61.4492 90.4713 61.4492C89.8435 61.4492 89.3346 61.9584 89.3346 62.5865C89.3346 63.2147 89.8435 63.7239 90.4713 63.7239Z" fill="#8387A3"/>
<path d="M90.4713 70.8685C91.2054 70.8685 91.8005 70.273 91.8005 69.5385C91.8005 68.8039 91.2054 68.2084 90.4713 68.2084C89.7371 68.2084 89.142 68.8039 89.142 69.5385C89.142 70.273 89.7371 70.8685 90.4713 70.8685Z" fill="#8387A3"/>
<path d="M92.0313 76.4904C92.0313 75.628 91.3328 74.929 90.4709 74.929C89.609 74.929 88.9105 75.628 88.9105 76.4904C88.9105 77.3527 89.609 78.0519 90.4709 78.0519C91.3328 78.0519 92.0313 77.3527 92.0313 76.4904Z" fill="#8387A3"/>
<path d="M90.4714 85.2353C91.4609 85.2353 92.2631 84.4326 92.2631 83.4424C92.2631 82.4521 91.4609 81.6494 90.4714 81.6494C89.4818 81.6494 88.6796 82.4521 88.6796 83.4424C88.6796 84.4326 89.4818 85.2353 90.4714 85.2353Z" fill="#8387A3"/>
<path d="M90.4709 92.4569C91.6093 92.4569 92.5322 91.5334 92.5322 90.3942C92.5322 89.2551 91.6093 88.3316 90.4709 88.3316C89.3325 88.3316 88.4096 89.2551 88.4096 90.3942C88.4096 91.5334 89.3325 92.4569 90.4709 92.4569Z" fill="#8387A3"/>
<path d="M90.4713 99.6979C91.7693 99.6979 92.8216 98.645 92.8216 97.3462C92.8216 96.0474 91.7693 94.9944 90.4713 94.9944C89.1733 94.9944 88.1211 96.0474 88.1211 97.3462C88.1211 98.645 89.1733 99.6979 90.4713 99.6979Z" fill="#8387A3"/>
<path d="M83.5246 0.0403886C83.5358 0.0403886 83.5449 0.0313336 83.5449 0.0201638C83.5449 0.00899392 83.5358 -6.10352e-05 83.5246 -6.10352e-05C83.5134 -6.10352e-05 83.5043 0.00899392 83.5043 0.0201638C83.5043 0.0313336 83.5134 0.0403886 83.5246 0.0403886Z" fill="#8387A3"/>
<path d="M83.5238 7.06757C83.577 7.06757 83.6201 7.02444 83.6201 6.97123C83.6201 6.91801 83.577 6.87488 83.5238 6.87488C83.4706 6.87488 83.4275 6.91801 83.4275 6.97123C83.4275 7.02444 83.4706 7.06757 83.5238 7.06757Z" fill="#8387A3"/>
<path d="M83.5236 13.7303C83.417 13.7303 83.3311 13.8167 83.3311 13.9232C83.3311 14.0296 83.417 14.1159 83.5236 14.1159C83.6302 14.1159 83.7162 14.0296 83.7162 13.9232C83.7162 13.8167 83.6302 13.7303 83.5236 13.7303Z" fill="#8387A3"/>
<path d="M83.832 20.8751C83.832 20.7048 83.6938 20.5666 83.5237 20.5666C83.3535 20.5666 83.2156 20.7048 83.2156 20.8751C83.2156 21.0454 83.3534 21.1835 83.5237 21.1835C83.6939 21.1835 83.832 21.0454 83.832 20.8751Z" fill="#8387A3"/>
<path d="M83.948 27.8272C83.948 27.5929 83.7581 27.403 83.524 27.403C83.2899 27.403 83.1 27.5929 83.1 27.8272C83.1 28.0613 83.2899 28.2512 83.524 28.2512C83.7581 28.2512 83.948 28.0613 83.948 27.8272Z" fill="#8387A3"/>
<path d="M84.0631 34.779C84.0631 34.4808 83.8216 34.2391 83.5236 34.2391C83.2256 34.2391 82.9841 34.4808 82.9841 34.779C82.9841 35.077 83.2256 35.3186 83.5236 35.3186C83.8216 35.3186 84.0631 35.077 84.0631 34.779Z" fill="#8387A3"/>
<path d="M84.1788 41.7309C84.1788 41.3689 83.8855 41.0754 83.5239 41.0754C83.1623 41.0754 82.869 41.3689 82.869 41.7309C82.869 42.0927 83.1623 42.3862 83.5239 42.3862C83.8855 42.3862 84.1788 42.0927 84.1788 41.7309Z" fill="#8387A3"/>
<path d="M84.3136 48.6827C84.3136 48.2463 83.9603 47.8924 83.5239 47.8924C83.0874 47.8924 82.7341 48.2463 82.7341 48.6827C82.7341 49.1192 83.0874 49.4731 83.5239 49.4731C83.9603 49.4731 84.3136 49.1192 84.3136 48.6827Z" fill="#8387A3"/>
<path d="M84.4866 55.6346C84.4866 55.1023 84.0552 54.6708 83.5233 54.6708C82.9915 54.6708 82.5601 55.1023 82.5601 55.6346C82.5601 56.1671 82.9915 56.5986 83.5233 56.5986C84.0552 56.5986 84.4866 56.1671 84.4866 55.6346Z" fill="#8387A3"/>
<path d="M83.5234 63.7239C84.1511 63.7239 84.66 63.2147 84.66 62.5865C84.66 61.9584 84.1511 61.4492 83.5234 61.4492C82.8956 61.4492 82.3867 61.9584 82.3867 62.5865C82.3867 63.2147 82.8956 63.7239 83.5234 63.7239Z" fill="#8387A3"/>
<path d="M83.5234 70.8685C84.2576 70.8685 84.8527 70.273 84.8527 69.5385C84.8527 68.8039 84.2576 68.2084 83.5234 68.2084C82.7893 68.2084 82.1942 68.8039 82.1942 69.5385C82.1942 70.273 82.7893 70.8685 83.5234 70.8685Z" fill="#8387A3"/>
<path d="M85.084 76.4904C85.084 75.628 84.3852 74.929 83.5236 74.929C82.662 74.929 81.9632 75.628 81.9632 76.4904C81.9632 77.3527 82.662 78.0519 83.5236 78.0519C84.3852 78.0519 85.084 77.3527 85.084 76.4904Z" fill="#8387A3"/>
<path d="M83.5239 85.2351C84.5134 85.2351 85.3155 84.4324 85.3155 83.4423C85.3155 82.4522 84.5134 81.6495 83.5239 81.6495C82.5344 81.6495 81.7322 82.4522 81.7322 83.4423C81.7322 84.4324 82.5344 85.2351 83.5239 85.2351Z" fill="#8387A3"/>
<path d="M83.5236 92.4569C84.6621 92.4569 85.585 91.5334 85.585 90.3942C85.585 89.2551 84.6621 88.3316 83.5236 88.3316C82.3852 88.3316 81.4623 89.2551 81.4623 90.3942C81.4623 91.5334 82.3852 92.4569 83.5236 92.4569Z" fill="#8387A3"/>
<path d="M83.5237 99.6981C84.8218 99.6981 85.8741 98.6451 85.8741 97.3462C85.8741 96.0473 84.8218 94.9943 83.5237 94.9943C82.2256 94.9943 81.1733 96.0473 81.1733 97.3462C81.1733 98.6451 82.2256 99.6981 83.5237 99.6981Z" fill="#8387A3"/>
<path d="M76.5771 0.040254C76.5882 0.040254 76.5972 0.0312702 76.5972 0.020188C76.5972 0.00910591 76.5882 0.00012207 76.5771 0.00012207C76.566 0.00012207 76.5569 0.00910591 76.5569 0.020188C76.5569 0.0312702 76.566 0.040254 76.5771 0.040254Z" fill="#8387A3"/>
<path d="M76.576 7.06757C76.6291 7.06757 76.6723 7.02444 76.6723 6.97123C76.6723 6.91801 76.6291 6.87488 76.576 6.87488C76.5228 6.87488 76.4797 6.91801 76.4797 6.97123C76.4797 7.02444 76.5228 7.06757 76.576 7.06757Z" fill="#8387A3"/>
<path d="M76.5762 13.7303C76.4699 13.7303 76.3836 13.8167 76.3836 13.9232C76.3836 14.0296 76.4699 14.1159 76.5762 14.1159C76.6825 14.1159 76.7691 14.0296 76.7691 13.9232C76.7691 13.8167 76.6825 13.7303 76.5762 13.7303Z" fill="#8387A3"/>
<path d="M76.8845 20.8751C76.8845 20.7048 76.7464 20.5666 76.5762 20.5666C76.406 20.5666 76.2679 20.7048 76.2679 20.8751C76.2679 21.0454 76.406 21.1835 76.5762 21.1835C76.7464 21.1835 76.8845 21.0454 76.8845 20.8751Z" fill="#8387A3"/>
<path d="M76.9996 27.8272C76.9996 27.5929 76.81 27.403 76.5758 27.403C76.3417 27.403 76.1521 27.5929 76.1521 27.8272C76.1521 28.0613 76.3417 28.2512 76.5758 28.2512C76.81 28.2512 76.9996 28.0613 76.9996 27.8272Z" fill="#8387A3"/>
<path d="M77.1159 34.779C77.1159 34.4808 76.8741 34.2391 76.5764 34.2391C76.2787 34.2391 76.0369 34.4808 76.0369 34.779C76.0369 35.077 76.2787 35.3186 76.5764 35.3186C76.8741 35.3186 77.1159 35.077 77.1159 34.779Z" fill="#8387A3"/>
<path d="M77.2315 41.7309C77.2315 41.3689 76.9383 41.0754 76.5763 41.0754C76.2144 41.0754 75.9211 41.3689 75.9211 41.7309C75.9211 42.0927 76.2144 42.3862 76.5763 42.3862C76.9383 42.3862 77.2315 42.0927 77.2315 41.7309Z" fill="#8387A3"/>
<path d="M77.3663 48.6827C77.3663 48.2463 77.0123 47.8924 76.5762 47.8924C76.1401 47.8924 75.7861 48.2463 75.7861 48.6827C75.7861 49.1192 76.1401 49.4731 76.5762 49.4731C77.0123 49.4731 77.3663 49.1192 77.3663 48.6827Z" fill="#8387A3"/>
<path d="M77.5394 55.6346C77.5394 55.1023 77.1083 54.6708 76.5761 54.6708C76.044 54.6708 75.6129 55.1023 75.6129 55.6346C75.6129 56.1671 76.044 56.5986 76.5761 56.5986C77.1083 56.5986 77.5394 56.1671 77.5394 55.6346Z" fill="#8387A3"/>
<path d="M76.5762 63.7239C77.2039 63.7239 77.7128 63.2147 77.7128 62.5865C77.7128 61.9584 77.2039 61.4492 76.5762 61.4492C75.9484 61.4492 75.4395 61.9584 75.4395 62.5865C75.4395 63.2147 75.9484 63.7239 76.5762 63.7239Z" fill="#8387A3"/>
<path d="M76.5762 70.8685C77.3103 70.8685 77.9054 70.273 77.9054 69.5385C77.9054 68.8039 77.3103 68.2084 76.5762 68.2084C75.8421 68.2084 75.2469 68.8039 75.2469 69.5385C75.2469 70.273 75.8421 70.8685 76.5762 70.8685Z" fill="#8387A3"/>
<path d="M78.1367 76.4904C78.1367 75.628 77.4383 74.929 76.5763 74.929C75.7144 74.929 75.0159 75.628 75.0159 76.4904C75.0159 77.3527 75.7144 78.0519 76.5763 78.0519C77.4383 78.0519 78.1367 77.3527 78.1367 76.4904Z" fill="#8387A3"/>
<path d="M78.3678 83.4423C78.3678 82.4521 77.5656 81.6494 76.5759 81.6494C75.5865 81.6494 74.7844 82.4521 74.7844 83.4423C74.7844 84.4325 75.5865 85.2351 76.5759 85.2351C77.5656 85.2351 78.3678 84.4325 78.3678 83.4423Z" fill="#8387A3"/>
<path d="M78.6379 90.3942C78.6379 89.2551 77.7147 88.3316 76.5763 88.3316C75.4379 88.3316 74.515 89.2551 74.515 90.3942C74.515 91.5334 75.4379 92.4569 76.5763 92.4569C77.7148 92.4569 78.6379 91.5334 78.6379 90.3942Z" fill="#8387A3"/>
<path d="M76.5761 99.6979C77.8741 99.6979 78.9264 98.645 78.9264 97.3462C78.9264 96.0474 77.8741 94.9944 76.5761 94.9944C75.2781 94.9944 74.2259 96.0474 74.2259 97.3462C74.2259 98.645 75.2781 99.6979 76.5761 99.6979Z" fill="#8387A3"/>
<path d="M69.6294 0.0403886C69.6406 0.0403886 69.6497 0.0313336 69.6497 0.0201638C69.6497 0.00899392 69.6406 -6.10352e-05 69.6294 -6.10352e-05C69.6182 -6.10352e-05 69.6091 0.00899392 69.6091 0.0201638C69.6091 0.0313336 69.6182 0.0403886 69.6294 0.0403886Z" fill="#8387A3"/>
<path d="M69.6287 7.06757C69.6819 7.06757 69.725 7.02444 69.725 6.97123C69.725 6.91801 69.6819 6.87488 69.6287 6.87488C69.5755 6.87488 69.5324 6.91801 69.5324 6.97123C69.5324 7.02444 69.5755 7.06757 69.6287 7.06757Z" fill="#8387A3"/>
<path d="M69.6289 13.7303C69.5226 13.7303 69.4363 13.8167 69.4363 13.9232C69.4363 14.0296 69.5226 14.1159 69.6289 14.1159C69.7355 14.1159 69.8215 14.0296 69.8215 13.9232C69.8215 13.8167 69.7355 13.7303 69.6289 13.7303Z" fill="#8387A3"/>
<path d="M69.937 20.8751C69.937 20.7048 69.7989 20.5666 69.6287 20.5666C69.4585 20.5666 69.3207 20.7048 69.3207 20.8751C69.3207 21.0454 69.4585 21.1835 69.6287 21.1835C69.7989 21.1835 69.937 21.0454 69.937 20.8751Z" fill="#8387A3"/>
<path d="M70.0531 27.8272C70.0531 27.5929 69.8632 27.403 69.6291 27.403C69.395 27.403 69.2053 27.5929 69.2053 27.8272C69.2053 28.0613 69.395 28.2512 69.6291 28.2512C69.8632 28.2512 70.0531 28.0613 70.0531 27.8272Z" fill="#8387A3"/>
<path d="M70.168 34.779C70.168 34.4808 69.9265 34.2391 69.6285 34.2391C69.3305 34.2391 69.0891 34.4808 69.0891 34.779C69.0891 35.077 69.3305 35.3186 69.6285 35.3186C69.9265 35.3186 70.168 35.077 70.168 34.779Z" fill="#8387A3"/>
<path d="M70.2836 41.7309C70.2836 41.3689 69.9903 41.0754 69.6287 41.0754C69.2671 41.0754 68.9738 41.3689 68.9738 41.7309C68.9738 42.0927 69.2671 42.3862 69.6287 42.3862C69.9903 42.3862 70.2836 42.0927 70.2836 41.7309Z" fill="#8387A3"/>
<path d="M70.4185 48.6827C70.4185 48.2463 70.0651 47.8924 69.6287 47.8924C69.1923 47.8924 68.8389 48.2463 68.8389 48.6827C68.8389 49.1192 69.1923 49.4731 69.6287 49.4731C70.0651 49.4731 70.4185 49.1192 70.4185 48.6827Z" fill="#8387A3"/>
<path d="M70.5919 55.6346C70.5919 55.1023 70.1605 54.6708 69.6287 54.6708C69.0969 54.6708 68.6655 55.1023 68.6655 55.6346C68.6655 56.1671 69.0969 56.5986 69.6287 56.5986C70.1605 56.5986 70.5919 56.1671 70.5919 55.6346Z" fill="#8387A3"/>
<path d="M69.6287 63.7239C70.2565 63.7239 70.7654 63.2147 70.7654 62.5865C70.7654 61.9584 70.2565 61.4492 69.6287 61.4492C69.001 61.4492 68.4921 61.9584 68.4921 62.5865C68.4921 63.2147 69.001 63.7239 69.6287 63.7239Z" fill="#8387A3"/>
<path d="M69.6287 70.8685C70.3628 70.8685 70.958 70.273 70.958 69.5385C70.958 68.8039 70.3628 68.2084 69.6287 68.2084C68.8946 68.2084 68.2995 68.8039 68.2995 69.5385C68.2995 70.273 68.8946 70.8685 69.6287 70.8685Z" fill="#8387A3"/>
<path d="M71.1892 76.4904C71.1892 75.628 70.4904 74.929 69.6285 74.929C68.7668 74.929 68.0681 75.628 68.0681 76.4904C68.0681 77.3527 68.7668 78.0519 69.6285 78.0519C70.4904 78.0519 71.1892 77.3527 71.1892 76.4904Z" fill="#8387A3"/>
<path d="M69.6287 85.2351C70.6182 85.2351 71.4203 84.4324 71.4203 83.4423C71.4203 82.4522 70.6182 81.6495 69.6287 81.6495C68.6392 81.6495 67.837 82.4522 67.837 83.4423C67.837 84.4324 68.6392 85.2351 69.6287 85.2351Z" fill="#8387A3"/>
<path d="M69.6284 92.4569C70.7669 92.4569 71.6898 91.5334 71.6898 90.3942C71.6898 89.2551 70.7669 88.3316 69.6284 88.3316C68.49 88.3316 67.5671 89.2551 67.5671 90.3942C67.5671 91.5334 68.49 92.4569 69.6284 92.4569Z" fill="#8387A3"/>
<path d="M69.629 99.6981C70.927 99.6981 71.9794 98.6451 71.9794 97.3462C71.9794 96.0473 70.927 94.9943 69.629 94.9943C68.3309 94.9943 67.2786 96.0473 67.2786 97.3462C67.2786 98.6451 68.3309 99.6981 69.629 99.6981Z" fill="#8387A3"/>
<path d="M62.682 0.040254C62.6931 0.040254 62.7021 0.0312702 62.7021 0.020188C62.7021 0.00910591 62.6931 0.00012207 62.682 0.00012207C62.6709 0.00012207 62.6619 0.00910591 62.6619 0.020188C62.6619 0.0312702 62.6709 0.040254 62.682 0.040254Z" fill="#8387A3"/>
<path d="M62.6812 7.06757C62.7344 7.06757 62.7775 7.02444 62.7775 6.97123C62.7775 6.91801 62.7344 6.87488 62.6812 6.87488C62.628 6.87488 62.5849 6.91801 62.5849 6.97123C62.5849 7.02444 62.628 7.06757 62.6812 7.06757Z" fill="#8387A3"/>
<path d="M62.681 13.7303C62.5747 13.7303 62.4885 13.8167 62.4885 13.9232C62.4885 14.0296 62.5747 14.1159 62.681 14.1159C62.7873 14.1159 62.8739 14.0296 62.8739 13.9232C62.8739 13.8167 62.7873 13.7303 62.681 13.7303Z" fill="#8387A3"/>
<path d="M62.9893 20.8751C62.9893 20.7048 62.8512 20.5666 62.681 20.5666C62.5109 20.5666 62.3727 20.7048 62.3727 20.8751C62.3727 21.0454 62.5109 21.1835 62.681 21.1835C62.8512 21.1835 62.9893 21.0454 62.9893 20.8751Z" fill="#8387A3"/>
<path d="M63.105 27.8272C63.105 27.5929 62.9154 27.403 62.6813 27.403C62.4471 27.403 62.2575 27.5929 62.2575 27.8272C62.2575 28.0613 62.4471 28.2512 62.6813 28.2512C62.9154 28.2512 63.105 28.0613 63.105 27.8272Z" fill="#8387A3"/>
<path d="M63.2209 34.779C63.2209 34.4808 62.9795 34.2391 62.6814 34.2391C62.3837 34.2391 62.1423 34.4808 62.1423 34.779C62.1423 35.077 62.3837 35.3186 62.6814 35.3186C62.9795 35.3186 63.2209 35.077 63.2209 34.779Z" fill="#8387A3"/>
<path d="M63.3367 41.7309C63.3367 41.3689 63.0434 41.0754 62.6814 41.0754C62.3195 41.0754 62.0266 41.3689 62.0266 41.7309C62.0266 42.0927 62.3195 42.3862 62.6814 42.3862C63.0434 42.3862 63.3367 42.0927 63.3367 41.7309Z" fill="#8387A3"/>
<path d="M63.4713 48.6827C63.4713 48.2463 63.1173 47.8924 62.6812 47.8924C62.2451 47.8924 61.8914 48.2463 61.8914 48.6827C61.8914 49.1192 62.2451 49.4731 62.6812 49.4731C63.1173 49.4731 63.4713 49.1192 63.4713 48.6827Z" fill="#8387A3"/>
<path d="M63.6446 55.6346C63.6446 55.1023 63.2135 54.6708 62.6814 54.6708C62.1493 54.6708 61.7182 55.1023 61.7182 55.6346C61.7182 56.1671 62.1493 56.5986 62.6814 56.5986C63.2135 56.5986 63.6446 56.1671 63.6446 55.6346Z" fill="#8387A3"/>
<path d="M62.6815 63.7239C63.3092 63.7239 63.8181 63.2147 63.8181 62.5865C63.8181 61.9584 63.3092 61.4492 62.6815 61.4492C62.0537 61.4492 61.5448 61.9584 61.5448 62.5865C61.5448 63.2147 62.0537 63.7239 62.6815 63.7239Z" fill="#8387A3"/>
<path d="M64.011 69.5385C64.011 68.8039 63.4156 68.2084 62.6815 68.2084C61.9473 68.2084 61.3522 68.8039 61.3522 69.5385C61.3522 70.273 61.9474 70.8685 62.6815 70.8685C63.4156 70.8685 64.011 70.273 64.011 69.5385Z" fill="#8387A3"/>
<path d="M64.2417 76.4904C64.2417 75.628 63.5432 74.929 62.6813 74.929C61.8193 74.929 61.1208 75.628 61.1208 76.4904C61.1208 77.3527 61.8193 78.0519 62.6813 78.0519C63.5432 78.0519 64.2417 77.3527 64.2417 76.4904Z" fill="#8387A3"/>
<path d="M64.4731 83.4423C64.4731 82.4521 63.6709 81.6494 62.6812 81.6494C61.6918 81.6494 60.8896 82.4521 60.8896 83.4423C60.8896 84.4325 61.6918 85.2351 62.6812 85.2351C63.6709 85.2351 64.4731 84.4325 64.4731 83.4423Z" fill="#8387A3"/>
<path d="M64.7428 90.3942C64.7428 89.2551 63.8196 88.3316 62.6812 88.3316C61.5428 88.3316 60.6199 89.2551 60.6199 90.3942C60.6199 91.5334 61.5428 92.4569 62.6812 92.4569C63.8197 92.4569 64.7428 91.5334 64.7428 90.3942Z" fill="#8387A3"/>
<path d="M62.6809 99.6979C63.9789 99.6979 65.0312 98.645 65.0312 97.3462C65.0312 96.0474 63.9789 94.9944 62.6809 94.9944C61.3829 94.9944 60.3307 96.0474 60.3307 97.3462C60.3307 98.645 61.3829 99.6979 62.6809 99.6979Z" fill="#8387A3"/>
<path d="M55.7348 0.0403886C55.746 0.0403886 55.7551 0.0313336 55.7551 0.0201638C55.7551 0.00899392 55.746 -6.10352e-05 55.7348 -6.10352e-05C55.7236 -6.10352e-05 55.7145 0.00899392 55.7145 0.0201638C55.7145 0.0313336 55.7236 0.0403886 55.7348 0.0403886Z" fill="#8387A3"/>
<path d="M55.734 6.87488C55.681 6.87488 55.6378 6.91804 55.6378 6.97123C55.6378 7.02441 55.681 7.06757 55.734 7.06757C55.7873 7.06757 55.8306 7.02441 55.8306 6.97123C55.8306 6.91804 55.7873 6.87488 55.734 6.87488Z" fill="#8387A3"/>
<path d="M55.7338 13.7303C55.6275 13.7303 55.5412 13.8167 55.5412 13.9232C55.5412 14.0296 55.6275 14.1159 55.7338 14.1159C55.8404 14.1159 55.9263 14.0296 55.9263 13.9232C55.9263 13.8167 55.8403 13.7303 55.7338 13.7303Z" fill="#8387A3"/>
<path d="M56.0423 20.8751C56.0423 20.7048 55.9042 20.5666 55.734 20.5666C55.5638 20.5666 55.426 20.7048 55.426 20.8751C55.426 21.0454 55.5638 21.1835 55.734 21.1835C55.9042 21.1835 56.0423 21.0454 56.0423 20.8751Z" fill="#8387A3"/>
<path d="M56.158 27.8272C56.158 27.5929 55.968 27.403 55.7339 27.403C55.5001 27.403 55.3102 27.5929 55.3102 27.8272C55.3102 28.0613 55.5001 28.2512 55.7339 28.2512C55.968 28.2512 56.158 28.0613 56.158 27.8272Z" fill="#8387A3"/>
<path d="M56.2734 34.779C56.2734 34.4808 56.0319 34.2391 55.7339 34.2391C55.4359 34.2391 55.1945 34.4808 55.1945 34.779C55.1945 35.077 55.4359 35.3186 55.7339 35.3186C56.0319 35.3186 56.2734 35.077 56.2734 34.779Z" fill="#8387A3"/>
<path d="M56.3885 41.7309C56.3885 41.3689 56.0952 41.0754 55.7336 41.0754C55.372 41.0754 55.0787 41.3689 55.0787 41.7309C55.0787 42.0927 55.372 42.3862 55.7336 42.3862C56.0952 42.3862 56.3885 42.0927 56.3885 41.7309Z" fill="#8387A3"/>
<path d="M56.5232 48.6827C56.5232 48.2463 56.1699 47.8924 55.7334 47.8924C55.2973 47.8924 54.9437 48.2463 54.9437 48.6827C54.9437 49.1192 55.2973 49.4731 55.7334 49.4731C56.1698 49.4731 56.5232 49.1192 56.5232 48.6827Z" fill="#8387A3"/>
<path d="M56.697 55.6346C56.697 55.1023 56.2656 54.6708 55.7335 54.6708C55.2017 54.6708 54.7703 55.1023 54.7703 55.6346C54.7703 56.1671 55.2017 56.5986 55.7335 56.5986C56.2656 56.5986 56.697 56.1671 56.697 55.6346Z" fill="#8387A3"/>
<path d="M55.7338 63.7239C56.3615 63.7239 56.8704 63.2147 56.8704 62.5865C56.8704 61.9584 56.3615 61.4492 55.7338 61.4492C55.106 61.4492 54.5971 61.9584 54.5971 62.5865C54.5971 63.2147 55.106 63.7239 55.7338 63.7239Z" fill="#8387A3"/>
<path d="M55.7338 70.8685C56.4679 70.8685 57.063 70.273 57.063 69.5385C57.063 68.8039 56.4679 68.2084 55.7338 68.2084C54.9997 68.2084 54.4045 68.8039 54.4045 69.5385C54.4045 70.273 54.9997 70.8685 55.7338 70.8685Z" fill="#8387A3"/>
<path d="M57.2945 76.4904C57.2945 75.628 56.5957 74.929 55.7337 74.929C54.8721 74.929 54.1733 75.628 54.1733 76.4904C54.1733 77.3527 54.8721 78.0519 55.7337 78.0519C56.5957 78.0519 57.2945 77.3527 57.2945 76.4904Z" fill="#8387A3"/>
<path d="M55.7335 85.2351C56.723 85.2351 57.5252 84.4324 57.5252 83.4423C57.5252 82.4522 56.723 81.6495 55.7335 81.6495C54.744 81.6495 53.9419 82.4522 53.9419 83.4423C53.9419 84.4324 54.744 85.2351 55.7335 85.2351Z" fill="#8387A3"/>
<path d="M55.7338 92.4569C56.8722 92.4569 57.7951 91.5334 57.7951 90.3942C57.7951 89.2551 56.8722 88.3316 55.7338 88.3316C54.5954 88.3316 53.6725 89.2551 53.6725 90.3942C53.6725 91.5334 54.5954 92.4569 55.7338 92.4569Z" fill="#8387A3"/>
<path d="M55.7338 99.6981C57.0318 99.6981 58.0842 98.6451 58.0842 97.3462C58.0842 96.0473 57.0318 94.9943 55.7338 94.9943C54.4357 94.9943 53.3834 96.0473 53.3834 97.3462C53.3834 98.6451 54.4357 99.6981 55.7338 99.6981Z" fill="#8387A3"/>
<path d="M48.7873 0.040254C48.7985 0.040254 48.8075 0.0312702 48.8075 0.020188C48.8075 0.00910591 48.7985 0.00012207 48.7873 0.00012207C48.7762 0.00012207 48.7672 0.00910591 48.7672 0.020188C48.7672 0.0312702 48.7762 0.040254 48.7873 0.040254Z" fill="#8387A3"/>
<path d="M48.7862 7.06757C48.8393 7.06757 48.8825 7.02444 48.8825 6.97123C48.8825 6.91801 48.8393 6.87488 48.7862 6.87488C48.733 6.87488 48.6899 6.91801 48.6899 6.97123C48.6899 7.02444 48.733 7.06757 48.7862 7.06757Z" fill="#8387A3"/>
<path d="M48.7864 13.7303C48.6802 13.7303 48.5939 13.8167 48.5939 13.9232C48.5939 14.0296 48.6802 14.1159 48.7864 14.1159C48.8927 14.1159 48.9793 14.0296 48.9793 13.9232C48.9793 13.8167 48.8927 13.7303 48.7864 13.7303Z" fill="#8387A3"/>
<path d="M49.0946 20.8751C49.0946 20.7048 48.9568 20.5666 48.7863 20.5666C48.6161 20.5666 48.478 20.7048 48.478 20.8751C48.478 21.0454 48.6161 21.1835 48.7863 21.1835C48.9568 21.1835 49.0946 21.0454 49.0946 20.8751Z" fill="#8387A3"/>
<path d="M49.2104 27.8272C49.2104 27.5929 49.0208 27.403 48.7867 27.403C48.5525 27.403 48.3629 27.5929 48.3629 27.8272C48.3629 28.0613 48.5525 28.2512 48.7867 28.2512C49.0208 28.2512 49.2104 28.0613 49.2104 27.8272Z" fill="#8387A3"/>
<path d="M49.3258 34.779C49.3258 34.4808 49.0843 34.2391 48.7863 34.2391C48.4886 34.2391 48.2471 34.4808 48.2471 34.779C48.2471 35.077 48.4886 35.3186 48.7863 35.3186C49.0843 35.3186 49.3258 35.077 49.3258 34.779Z" fill="#8387A3"/>
<path d="M49.4415 41.7309C49.4415 41.3689 49.1482 41.0754 48.7863 41.0754C48.4244 41.0754 48.1314 41.3689 48.1314 41.7309C48.1314 42.0927 48.4244 42.3862 48.7863 42.3862C49.1482 42.3862 49.4415 42.0927 49.4415 41.7309Z" fill="#8387A3"/>
<path d="M49.5764 48.6827C49.5764 48.2463 49.2224 47.8924 48.7863 47.8924C48.3502 47.8924 47.9965 48.2463 47.9965 48.6827C47.9965 49.1192 48.3502 49.4731 48.7863 49.4731C49.2224 49.4731 49.5764 49.1192 49.5764 48.6827Z" fill="#8387A3"/>
<path d="M49.7495 55.6346C49.7495 55.1023 49.3184 54.6708 48.7863 54.6708C48.2542 54.6708 47.8231 55.1023 47.8231 55.6346C47.8231 56.1671 48.2542 56.5986 48.7863 56.5986C49.3184 56.5986 49.7495 56.1671 49.7495 55.6346Z" fill="#8387A3"/>
<path d="M49.9227 62.5865C49.9227 61.9585 49.4138 61.4492 48.786 61.4492C48.1585 61.4492 47.6497 61.9585 47.6497 62.5865C47.6497 63.2148 48.1585 63.7239 48.786 63.7239C49.4138 63.7239 49.9227 63.2148 49.9227 62.5865Z" fill="#8387A3"/>
<path d="M50.1158 69.5385C50.1158 68.8039 49.5204 68.2084 48.7863 68.2084C48.0521 68.2084 47.457 68.8039 47.457 69.5385C47.457 70.273 48.0522 70.8685 48.7863 70.8685C49.5204 70.8685 50.1158 70.273 50.1158 69.5385Z" fill="#8387A3"/>
<path d="M50.3469 76.4904C50.3469 75.628 49.6485 74.929 48.7865 74.929C47.9246 74.929 47.2261 75.628 47.2261 76.4904C47.2261 77.3527 47.9246 78.0519 48.7865 78.0519C49.6485 78.0519 50.3469 77.3527 50.3469 76.4904Z" fill="#8387A3"/>
<path d="M50.5781 83.4423C50.5781 82.4521 49.776 81.6494 48.7863 81.6494C47.7969 81.6494 46.9947 82.4521 46.9947 83.4423C46.9947 84.4325 47.7969 85.2351 48.7863 85.2351C49.776 85.2351 50.5781 84.4325 50.5781 83.4423Z" fill="#8387A3"/>
<path d="M50.8481 90.3942C50.8481 89.2551 49.9252 88.3316 48.7865 88.3316C47.6481 88.3316 46.7252 89.2551 46.7252 90.3942C46.7252 91.5334 47.6481 92.4569 48.7865 92.4569C49.9252 92.4569 50.8481 91.5334 50.8481 90.3942Z" fill="#8387A3"/>
<path d="M51.1368 97.3462C51.1368 96.0473 50.0846 94.9943 48.7863 94.9943C47.4883 94.9943 46.4361 96.0473 46.4361 97.3462C46.4361 98.645 47.4883 99.698 48.7863 99.698C50.0846 99.698 51.1368 98.645 51.1368 97.3462Z" fill="#8387A3"/>
<path d="M41.84 0C41.8289 0 41.8199 0.00907998 41.8199 0.0201454C41.8199 0.0312108 41.8289 0.0402908 41.84 0.0402908C41.8511 0.0402908 41.8603 0.0312108 41.8603 0.0201454C41.8603 0.00907998 41.8511 0 41.84 0Z" fill="#8387A3"/>
<path d="M41.8388 6.87488C41.7858 6.87488 41.7425 6.91804 41.7425 6.97123C41.7425 7.02441 41.7858 7.06757 41.8388 7.06757C41.8921 7.06757 41.9354 7.02441 41.9354 6.97123C41.9354 6.91804 41.8921 6.87488 41.8388 6.87488Z" fill="#8387A3"/>
<path d="M41.8386 13.7303C41.7323 13.7303 41.646 13.8167 41.646 13.9232C41.646 14.0296 41.7323 14.1159 41.8386 14.1159C41.9452 14.1159 42.0311 14.0296 42.0311 13.9232C42.0311 13.8167 41.9451 13.7303 41.8386 13.7303Z" fill="#8387A3"/>
<path d="M42.1471 20.8751C42.1471 20.7048 42.009 20.5666 41.8388 20.5666C41.6686 20.5666 41.5308 20.7048 41.5308 20.8751C41.5308 21.0454 41.6686 21.1835 41.8388 21.1835C42.009 21.1835 42.1471 21.0454 42.1471 20.8751Z" fill="#8387A3"/>
<path d="M42.2628 27.8272C42.2628 27.5929 42.0729 27.403 41.8388 27.403C41.605 27.403 41.415 27.5929 41.415 27.8272C41.415 28.0613 41.605 28.2512 41.8388 28.2512C42.0729 28.2512 42.2628 28.0613 42.2628 27.8272Z" fill="#8387A3"/>
<path d="M42.3783 34.779C42.3783 34.4808 42.1368 34.2391 41.8388 34.2391C41.5408 34.2391 41.2993 34.4808 41.2993 34.779C41.2993 35.077 41.5408 35.3186 41.8388 35.3186C42.1368 35.3186 42.3783 35.077 42.3783 34.779Z" fill="#8387A3"/>
<path d="M42.4937 41.7309C42.4937 41.3689 42.2004 41.0754 41.8388 41.0754C41.4772 41.0754 41.1839 41.3689 41.1839 41.7309C41.1839 42.0927 41.4772 42.3862 41.8388 42.3862C42.2004 42.3862 42.4937 42.0927 42.4937 41.7309Z" fill="#8387A3"/>
<path d="M42.6286 48.6827C42.6286 48.2463 42.2752 47.8924 41.8388 47.8924C41.4027 47.8924 41.049 48.2463 41.049 48.6827C41.049 49.1192 41.4027 49.4731 41.8388 49.4731C42.2752 49.4731 42.6286 49.1192 42.6286 48.6827Z" fill="#8387A3"/>
<path d="M42.8023 55.6346C42.8023 55.1023 42.3709 54.6708 41.8388 54.6708C41.307 54.6708 40.8756 55.1023 40.8756 55.6346C40.8756 56.1671 41.307 56.5986 41.8388 56.5986C42.3709 56.5986 42.8023 56.1671 42.8023 55.6346Z" fill="#8387A3"/>
<path d="M41.839 63.7239C42.4667 63.7239 42.9757 63.2147 42.9757 62.5865C42.9757 61.9584 42.4667 61.4492 41.839 61.4492C41.2112 61.4492 40.7023 61.9584 40.7023 62.5865C40.7023 63.2147 41.2112 63.7239 41.839 63.7239Z" fill="#8387A3"/>
<path d="M41.839 70.8685C42.5731 70.8685 43.1683 70.273 43.1683 69.5385C43.1683 68.8039 42.5731 68.2084 41.839 68.2084C41.1049 68.2084 40.5098 68.8039 40.5098 69.5385C40.5098 70.273 41.1049 70.8685 41.839 70.8685Z" fill="#8387A3"/>
<path d="M43.3994 76.4904C43.3994 75.628 42.7006 74.929 41.8387 74.929C40.9771 74.929 40.2783 75.628 40.2783 76.4904C40.2783 77.3527 40.977 78.0519 41.8387 78.0519C42.7006 78.0519 43.3994 77.3527 43.3994 76.4904Z" fill="#8387A3"/>
<path d="M41.8388 85.2351C42.8283 85.2351 43.6304 84.4324 43.6304 83.4423C43.6304 82.4522 42.8283 81.6495 41.8388 81.6495C40.8493 81.6495 40.0472 82.4522 40.0472 83.4423C40.0472 84.4324 40.8493 85.2351 41.8388 85.2351Z" fill="#8387A3"/>
<path d="M41.8387 92.4569C42.9771 92.4569 43.9 91.5334 43.9 90.3942C43.9 89.2551 42.9771 88.3316 41.8387 88.3316C40.7003 88.3316 39.7774 89.2551 39.7774 90.3942C39.7774 91.5334 40.7003 92.4569 41.8387 92.4569Z" fill="#8387A3"/>
<path d="M41.8386 99.6981C43.1367 99.6981 44.189 98.6451 44.189 97.3462C44.189 96.0473 43.1367 94.9943 41.8386 94.9943C40.5405 94.9943 39.4882 96.0473 39.4882 97.3462C39.4882 98.6451 40.5405 99.6981 41.8386 99.6981Z" fill="#8387A3"/>
<path d="M34.8924 0C34.881 0 34.8721 0.00907998 34.8721 0.0201454C34.8721 0.0312108 34.881 0.0402908 34.8924 0.0402908C34.9035 0.0402908 34.9122 0.0312108 34.9122 0.0201454C34.9122 0.00907998 34.9036 0 34.8924 0Z" fill="#8387A3"/>
<path d="M34.8918 6.87488C34.8382 6.87488 34.7953 6.91804 34.7953 6.97123C34.7953 7.02441 34.8382 7.06757 34.8918 7.06757C34.9448 7.06757 34.9879 7.02441 34.9879 6.97123C34.9879 6.91804 34.9449 6.87488 34.8918 6.87488Z" fill="#8387A3"/>
<path d="M34.8916 13.7303C34.785 13.7303 34.6988 13.8167 34.6988 13.9232C34.6988 14.0296 34.785 14.1159 34.8916 14.1159C34.9977 14.1159 35.0842 14.0296 35.0842 13.9232C35.0842 13.8167 34.9976 13.7303 34.8916 13.7303Z" fill="#8387A3"/>
<path d="M35.1997 20.8751C35.1997 20.7048 35.0619 20.5666 34.8916 20.5666C34.7211 20.5666 34.583 20.7048 34.583 20.8751C34.583 21.0454 34.7211 21.1835 34.8916 21.1835C35.0618 21.1835 35.1997 21.0454 35.1997 20.8751Z" fill="#8387A3"/>
<path d="M35.3152 27.8272C35.3152 27.5929 35.1255 27.403 34.8917 27.403C34.6573 27.403 34.4677 27.5929 34.4677 27.8272C34.4677 28.0613 34.6573 28.2512 34.8917 28.2512C35.1255 28.2512 35.3152 28.0613 35.3152 27.8272Z" fill="#8387A3"/>
<path d="M35.4306 34.779C35.4306 34.4808 35.1891 34.2391 34.8914 34.2391C34.5934 34.2391 34.352 34.4808 34.352 34.779C34.352 35.077 34.5934 35.3186 34.8914 35.3186C35.1891 35.3186 35.4306 35.077 35.4306 34.779Z" fill="#8387A3"/>
<path d="M35.5463 41.7309C35.5463 41.3689 35.253 41.0754 34.8914 41.0754C34.5295 41.0754 34.2362 41.3689 34.2362 41.7309C34.2362 42.0927 34.5295 42.3862 34.8914 42.3862C35.253 42.3862 35.5463 42.0927 35.5463 41.7309Z" fill="#8387A3"/>
<path d="M35.6816 48.6827C35.6816 48.2463 35.3277 47.8924 34.8918 47.8924C34.4554 47.8924 34.1018 48.2463 34.1018 48.6827C34.1018 49.1192 34.4554 49.4731 34.8918 49.4731C35.3277 49.4731 35.6816 49.1192 35.6816 48.6827Z" fill="#8387A3"/>
<path d="M35.8548 55.6346C35.8548 55.1023 35.4237 54.6708 34.8919 54.6708C34.3595 54.6708 33.9284 55.1023 33.9284 55.6346C33.9284 56.1671 34.3595 56.5986 34.8919 56.5986C35.4237 56.5986 35.8548 56.1671 35.8548 55.6346Z" fill="#8387A3"/>
<path d="M36.028 62.5865C36.028 61.9585 35.5192 61.4492 34.8917 61.4492C34.2639 61.4492 33.755 61.9585 33.755 62.5865C33.755 63.2148 34.2639 63.7239 34.8917 63.7239C35.5192 63.7239 36.028 63.2148 36.028 62.5865Z" fill="#8387A3"/>
<path d="M36.2207 69.5385C36.2207 68.8039 35.6253 68.2084 34.8915 68.2084C34.1571 68.2084 33.5619 68.8039 33.5619 69.5385C33.5619 70.273 34.1571 70.8685 34.8915 70.8685C35.6253 70.8685 36.2207 70.273 36.2207 69.5385Z" fill="#8387A3"/>
<path d="M36.4517 76.4904C36.4517 75.628 35.7533 74.929 34.8916 74.929C34.0294 74.929 33.3309 75.628 33.3309 76.4904C33.3309 77.3527 34.0294 78.0519 34.8916 78.0519C35.7533 78.0519 36.4517 77.3527 36.4517 76.4904Z" fill="#8387A3"/>
<path d="M36.6834 83.4423C36.6834 82.4521 35.8812 81.6494 34.8918 81.6494C33.9021 81.6494 33.1 82.4521 33.1 83.4423C33.1 84.4325 33.9021 85.2351 34.8918 85.2351C35.8813 85.2351 36.6834 84.4325 36.6834 83.4423Z" fill="#8387A3"/>
<path d="M36.953 90.3942C36.953 89.2551 36.0301 88.3316 34.8917 88.3316C33.753 88.3316 32.8301 89.2551 32.8301 90.3942C32.8301 91.5334 33.753 92.4569 34.8917 92.4569C36.0301 92.4569 36.953 91.5334 36.953 90.3942Z" fill="#8387A3"/>
<path d="M37.2416 97.3462C37.2416 96.0473 36.1894 94.9943 34.8914 94.9943C33.5931 94.9943 32.5409 96.0473 32.5409 97.3462C32.5409 98.645 33.5931 99.698 34.8914 99.698C36.1894 99.698 37.2416 98.645 37.2416 97.3462Z" fill="#8387A3"/>
<path d="M27.9448 0C27.9337 0 27.9247 0.00907998 27.9247 0.0201454C27.9247 0.0312108 27.9337 0.0402908 27.9448 0.0402908C27.9559 0.0402908 27.9652 0.0312108 27.9652 0.0201454C27.9652 0.00907998 27.9559 0 27.9448 0Z" fill="#8387A3"/>
<path d="M27.9437 6.87488C27.8907 6.87488 27.8474 6.91804 27.8474 6.97123C27.8474 7.02441 27.8907 7.06757 27.9437 7.06757C27.997 7.06757 28.0403 7.02441 28.0403 6.97123C28.0403 6.91804 27.997 6.87488 27.9437 6.87488Z" fill="#8387A3"/>
<path d="M27.9439 13.7303C27.8376 13.7303 27.7513 13.8167 27.7513 13.9232C27.7513 14.0296 27.8376 14.1159 27.9439 14.1159C28.0505 14.1159 28.1365 14.0296 28.1365 13.9232C28.1365 13.8167 28.0505 13.7303 27.9439 13.7303Z" fill="#8387A3"/>
<path d="M28.2519 20.8751C28.2519 20.7048 28.1138 20.5666 27.9436 20.5666C27.7734 20.5666 27.6356 20.7048 27.6356 20.8751C27.6356 21.0454 27.7734 21.1835 27.9436 21.1835C28.1139 21.1835 28.2519 21.0454 28.2519 20.8751Z" fill="#8387A3"/>
<path d="M28.3682 27.8272C28.3682 27.5929 28.1783 27.403 27.9442 27.403C27.7104 27.403 27.5204 27.5929 27.5204 27.8272C27.5204 28.0613 27.7104 28.2512 27.9442 28.2512C28.1783 28.2512 28.3682 28.0613 28.3682 27.8272Z" fill="#8387A3"/>
<path d="M28.4836 34.779C28.4836 34.4808 28.2421 34.2391 27.9441 34.2391C27.6461 34.2391 27.4046 34.4808 27.4046 34.779C27.4046 35.077 27.6461 35.3186 27.9441 35.3186C28.2421 35.3186 28.4836 35.077 28.4836 34.779Z" fill="#8387A3"/>
<path d="M28.5988 41.7309C28.5988 41.3689 28.3058 41.0754 27.9439 41.0754C27.5823 41.0754 27.289 41.3689 27.289 41.7309C27.289 42.0927 27.5823 42.3862 27.9439 42.3862C28.3058 42.3862 28.5988 42.0927 28.5988 41.7309Z" fill="#8387A3"/>
<path d="M28.7335 48.6827C28.7335 48.2463 28.3801 47.8924 27.9437 47.8924C27.5076 47.8924 27.1539 48.2463 27.1539 48.6827C27.1539 49.1192 27.5076 49.4731 27.9437 49.4731C28.3801 49.4731 28.7335 49.1192 28.7335 48.6827Z" fill="#8387A3"/>
<path d="M28.9074 55.6346C28.9074 55.1023 28.476 54.6708 27.9439 54.6708C27.4121 54.6708 26.9807 55.1023 26.9807 55.6346C26.9807 56.1671 27.4121 56.5986 27.9439 56.5986C28.476 56.5986 28.9074 56.1671 28.9074 55.6346Z" fill="#8387A3"/>
<path d="M27.9439 63.7239C28.5716 63.7239 29.0805 63.2147 29.0805 62.5865C29.0805 61.9584 28.5716 61.4492 27.9439 61.4492C27.3161 61.4492 26.8072 61.9584 26.8072 62.5865C26.8072 63.2147 27.3161 63.7239 27.9439 63.7239Z" fill="#8387A3"/>
<path d="M27.9439 70.8685C28.678 70.8685 29.2731 70.273 29.2731 69.5385C29.2731 68.8039 28.678 68.2084 27.9439 68.2084C27.2098 68.2084 26.6147 68.8039 26.6147 69.5385C26.6147 70.273 27.2098 70.8685 27.9439 70.8685Z" fill="#8387A3"/>
<path d="M29.5048 76.4904C29.5048 75.628 28.806 74.929 27.944 74.929C27.0824 74.929 26.3836 75.628 26.3836 76.4904C26.3836 77.3527 27.0824 78.0519 27.944 78.0519C28.806 78.0519 29.5048 77.3527 29.5048 76.4904Z" fill="#8387A3"/>
<path d="M27.9439 85.2351C28.9334 85.2351 29.7355 84.4324 29.7355 83.4423C29.7355 82.4522 28.9334 81.6495 27.9439 81.6495C26.9544 81.6495 26.1523 82.4522 26.1523 83.4423C26.1523 84.4324 26.9544 85.2351 27.9439 85.2351Z" fill="#8387A3"/>
<path d="M27.9441 92.4569C29.0825 92.4569 30.0054 91.5334 30.0054 90.3942C30.0054 89.2551 29.0825 88.3316 27.9441 88.3316C26.8056 88.3316 25.8828 89.2551 25.8828 90.3942C25.8828 91.5334 26.8056 92.4569 27.9441 92.4569Z" fill="#8387A3"/>
<path d="M30.2944 97.3462C30.2944 96.0473 29.2419 94.9943 27.9439 94.9943C26.6459 94.9943 25.5937 96.0473 25.5937 97.3462C25.5937 98.645 26.6459 99.698 27.9439 99.698C29.2419 99.698 30.2944 98.645 30.2944 97.3462Z" fill="#8387A3"/>
<path d="M20.9978 0C20.9864 0 20.9774 0.00907998 20.9774 0.0201454C20.9774 0.0312108 20.9864 0.0402908 20.9978 0.0402908C21.0089 0.0402908 21.0179 0.0312108 21.0179 0.0201454C21.0179 0.00907998 21.0089 0 20.9978 0Z" fill="#8387A3"/>
<path d="M20.9967 6.87488C20.9431 6.87488 20.9001 6.91804 20.9001 6.97123C20.9001 7.02441 20.9431 7.06757 20.9967 7.06757C21.0497 7.06757 21.0927 7.02441 21.0927 6.97123C21.0927 6.91804 21.0497 6.87488 20.9967 6.87488Z" fill="#8387A3"/>
<path d="M20.997 13.7303C20.8904 13.7303 20.8041 13.8167 20.8041 13.9232C20.8041 14.0296 20.8904 14.1159 20.997 14.1159C21.103 14.1159 21.1895 14.0296 21.1895 13.9232C21.1895 13.8167 21.1029 13.7303 20.997 13.7303Z" fill="#8387A3"/>
<path d="M21.3049 20.8751C21.3049 20.7048 21.1671 20.5666 20.9969 20.5666C20.8267 20.5666 20.6883 20.7048 20.6883 20.8751C20.6883 21.0454 20.8267 21.1835 20.9969 21.1835C21.1671 21.1835 21.3049 21.0454 21.3049 20.8751Z" fill="#8387A3"/>
<path d="M21.42 27.8272C21.42 27.5929 21.2304 27.403 20.9966 27.403C20.7622 27.403 20.5725 27.5929 20.5725 27.8272C20.5725 28.0613 20.7622 28.2512 20.9966 28.2512C21.2304 28.2512 21.42 28.0613 21.42 27.8272Z" fill="#8387A3"/>
<path d="M21.5359 34.779C21.5359 34.4808 21.2944 34.2391 20.9967 34.2391C20.6987 34.2391 20.4572 34.4808 20.4572 34.779C20.4572 35.077 20.6987 35.3186 20.9967 35.3186C21.2944 35.3186 21.5359 35.077 21.5359 34.779Z" fill="#8387A3"/>
<path d="M21.6516 41.7309C21.6516 41.3689 21.3583 41.0754 20.9967 41.0754C20.6348 41.0754 20.3415 41.3689 20.3415 41.7309C20.3415 42.0927 20.6348 42.3862 20.9967 42.3862C21.3583 42.3862 21.6516 42.0927 21.6516 41.7309Z" fill="#8387A3"/>
<path d="M21.7865 48.6827C21.7865 48.2463 21.4328 47.8924 20.9967 47.8924C20.5603 47.8924 20.2066 48.2463 20.2066 48.6827C20.2066 49.1192 20.5603 49.4731 20.9967 49.4731C21.4328 49.4731 21.7865 49.1192 21.7865 48.6827Z" fill="#8387A3"/>
<path d="M21.9596 55.6346C21.9596 55.1023 21.5285 54.6708 20.9967 54.6708C20.4646 54.6708 20.0332 55.1023 20.0332 55.6346C20.0332 56.1671 20.4646 56.5986 20.9967 56.5986C21.5285 56.5986 21.9596 56.1671 21.9596 55.6346Z" fill="#8387A3"/>
<path d="M20.9966 63.7239C21.6243 63.7239 22.1332 63.2147 22.1332 62.5865C22.1332 61.9584 21.6243 61.4492 20.9966 61.4492C20.3688 61.4492 19.8599 61.9584 19.8599 62.5865C19.8599 63.2147 20.3688 63.7239 20.9966 63.7239Z" fill="#8387A3"/>
<path d="M22.3259 69.5385C22.3259 68.8039 21.7305 68.2084 20.9967 68.2084C20.2623 68.2084 19.6672 68.8039 19.6672 69.5385C19.6672 70.273 20.2623 70.8685 20.9967 70.8685C21.7305 70.8685 22.3259 70.273 22.3259 69.5385Z" fill="#8387A3"/>
<path d="M22.5566 76.4904C22.5566 75.628 21.8581 74.929 20.9965 74.929C20.1343 74.929 19.4358 75.628 19.4358 76.4904C19.4358 77.3527 20.1343 78.0519 20.9965 78.0519C21.8581 78.0519 22.5566 77.3527 22.5566 76.4904Z" fill="#8387A3"/>
<path d="M22.7883 83.4423C22.7883 82.4521 21.9861 81.6494 20.9967 81.6494C20.007 81.6494 19.2049 82.4521 19.2049 83.4423C19.2049 84.4325 20.007 85.2351 20.9967 85.2351C21.9862 85.2351 22.7883 84.4325 22.7883 83.4423Z" fill="#8387A3"/>
<path d="M23.0578 90.3942C23.0578 89.2551 22.1349 88.3316 20.9965 88.3316C19.858 88.3316 18.9349 89.2551 18.9349 90.3942C18.9349 91.5334 19.8581 92.4569 20.9965 92.4569C22.1349 92.4569 23.0578 91.5334 23.0578 90.3942Z" fill="#8387A3"/>
<path d="M23.3469 97.3462C23.3469 96.0473 22.2947 94.9943 20.9967 94.9943C19.6987 94.9943 18.6462 96.0473 18.6462 97.3462C18.6462 98.645 19.6987 99.698 20.9967 99.698C22.2947 99.698 23.3469 98.645 23.3469 97.3462Z" fill="#8387A3"/>
<path d="M14.0496 0C14.0385 0 14.0296 0.00907998 14.0296 0.0201454C14.0296 0.0312108 14.0385 0.0402908 14.0496 0.0402908C14.0607 0.0402908 14.07 0.0312108 14.07 0.0201454C14.07 0.00907998 14.0607 0 14.0496 0Z" fill="#8387A3"/>
<path d="M14.0488 6.87488C13.9958 6.87488 13.9528 6.91804 13.9528 6.97123C13.9528 7.02441 13.9958 7.06757 14.0488 7.06757C14.1021 7.06757 14.1454 7.02441 14.1454 6.97123C14.1454 6.91804 14.1021 6.87488 14.0488 6.87488Z" fill="#8387A3"/>
<path d="M14.0488 13.7303C13.9425 13.7303 13.8562 13.8167 13.8562 13.9232C13.8562 14.0296 13.9425 14.1159 14.0488 14.1159C14.1554 14.1159 14.2414 14.0296 14.2414 13.9232C14.2414 13.8167 14.1554 13.7303 14.0488 13.7303Z" fill="#8387A3"/>
<path d="M14.3573 20.8751C14.3573 20.7048 14.2191 20.5666 14.049 20.5666C13.8788 20.5666 13.7409 20.7048 13.7409 20.8751C13.7409 21.0454 13.8787 21.1835 14.049 21.1835C14.2192 21.1835 14.3573 21.0454 14.3573 20.8751Z" fill="#8387A3"/>
<path d="M14.473 27.8272C14.473 27.5929 14.2834 27.403 14.049 27.403C13.8152 27.403 13.6252 27.5929 13.6252 27.8272C13.6252 28.0613 13.8152 28.2512 14.049 28.2512C14.2834 28.2512 14.473 28.0613 14.473 27.8272Z" fill="#8387A3"/>
<path d="M14.5884 34.779C14.5884 34.4808 14.3469 34.2391 14.0489 34.2391C13.7509 34.2391 13.5095 34.4808 13.5095 34.779C13.5095 35.077 13.7509 35.3186 14.0489 35.3186C14.3469 35.3186 14.5884 35.077 14.5884 34.779Z" fill="#8387A3"/>
<path d="M14.7044 41.7309C14.7044 41.3689 14.4111 41.0754 14.0492 41.0754C13.6876 41.0754 13.3943 41.3689 13.3943 41.7309C13.3943 42.0927 13.6876 42.3862 14.0492 42.3862C14.4111 42.3862 14.7044 42.0927 14.7044 41.7309Z" fill="#8387A3"/>
<path d="M14.8389 48.6827C14.8389 48.2463 14.4855 47.8924 14.0491 47.8924C13.613 47.8924 13.2593 48.2463 13.2593 48.6827C13.2593 49.1192 13.613 49.4731 14.0491 49.4731C14.4855 49.4731 14.8389 49.1192 14.8389 48.6827Z" fill="#8387A3"/>
<path d="M15.0125 55.6346C15.0125 55.1023 14.5811 54.6708 14.049 54.6708C13.5172 54.6708 13.0861 55.1023 13.0861 55.6346C13.0861 56.1671 13.5172 56.5986 14.049 56.5986C14.5811 56.5986 15.0125 56.1671 15.0125 55.6346Z" fill="#8387A3"/>
<path d="M14.0487 63.7239C14.6764 63.7239 15.1853 63.2147 15.1853 62.5865C15.1853 61.9584 14.6764 61.4492 14.0487 61.4492C13.4209 61.4492 12.912 61.9584 12.912 62.5865C12.912 63.2147 13.4209 63.7239 14.0487 63.7239Z" fill="#8387A3"/>
<path d="M14.0487 70.8685C14.7828 70.8685 15.3779 70.273 15.3779 69.5385C15.3779 68.8039 14.7828 68.2084 14.0487 68.2084C13.3146 68.2084 12.7195 68.8039 12.7195 69.5385C12.7195 70.273 13.3146 70.8685 14.0487 70.8685Z" fill="#8387A3"/>
<path d="M15.6096 76.4904C15.6096 75.628 14.9109 74.929 14.0489 74.929C13.1873 74.929 12.4885 75.628 12.4885 76.4904C12.4885 77.3527 13.1873 78.0519 14.0489 78.0519C14.9108 78.0519 15.6096 77.3527 15.6096 76.4904Z" fill="#8387A3"/>
<path d="M14.0491 85.2351C15.0386 85.2351 15.8408 84.4324 15.8408 83.4423C15.8408 82.4522 15.0386 81.6495 14.0491 81.6495C13.0596 81.6495 12.2575 82.4522 12.2575 83.4423C12.2575 84.4324 13.0596 85.2351 14.0491 85.2351Z" fill="#8387A3"/>
<path d="M14.0489 92.4569C15.1874 92.4569 16.1103 91.5334 16.1103 90.3942C16.1103 89.2551 15.1874 88.3316 14.0489 88.3316C12.9105 88.3316 11.9876 89.2551 11.9876 90.3942C11.9876 91.5334 12.9105 92.4569 14.0489 92.4569Z" fill="#8387A3"/>
<path d="M16.3996 97.3462C16.3996 96.0473 15.3472 94.9943 14.0492 94.9943C12.7511 94.9943 11.699 96.0473 11.699 97.3462C11.699 98.645 12.7512 99.698 14.0492 99.698C15.3472 99.698 16.3996 98.645 16.3996 97.3462Z" fill="#8387A3"/>
<path d="M7.10271 0C7.09161 0 7.08234 0.00907998 7.08234 0.0201454C7.08234 0.0312108 7.09161 0.0402908 7.10271 0.0402908C7.11381 0.0402908 7.12276 0.0312108 7.12276 0.0201454C7.12276 0.00907998 7.11381 0 7.10271 0Z" fill="#8387A3"/>
<path d="M7.1015 6.87488C7.0482 6.87488 7.00491 6.91804 7.00491 6.97123C7.00491 7.02441 7.0482 7.06757 7.1015 7.06757C7.1545 7.06757 7.19751 7.02441 7.19751 6.97123C7.19751 6.91804 7.15453 6.87488 7.1015 6.87488Z" fill="#8387A3"/>
<path d="M7.10178 13.7303C6.99518 13.7303 6.90891 13.8167 6.90891 13.9232C6.90891 14.0296 6.99518 14.1159 7.10178 14.1159C7.20808 14.1159 7.29436 14.0296 7.29436 13.9232C7.29436 13.8167 7.20808 13.7303 7.10178 13.7303Z" fill="#8387A3"/>
<path d="M7.3904 20.8751C7.3904 20.7154 7.26114 20.5859 7.10151 20.5859C6.94189 20.5859 6.81235 20.7154 6.81235 20.8751C6.81235 21.0348 6.94191 21.1642 7.10151 21.1642C7.26111 21.1642 7.3904 21.0349 7.3904 20.8751Z" fill="#8387A3"/>
<path d="M7.48693 27.827C7.48693 27.614 7.31438 27.4415 7.10176 27.4415C6.88886 27.4415 6.71631 27.614 6.71631 27.827C6.71631 28.0399 6.88886 28.2126 7.10176 28.2126C7.31436 28.2126 7.48693 28.0399 7.48693 27.827Z" fill="#8387A3"/>
<path d="M7.60238 34.779C7.60238 34.5022 7.37828 34.2778 7.10179 34.2778C6.82499 34.2778 6.60059 34.5021 6.60059 34.779C6.60059 35.0557 6.82497 35.2802 7.10179 35.2802C7.37831 35.2802 7.60238 35.0557 7.60238 34.779Z" fill="#8387A3"/>
<path d="M7.7183 41.7309C7.7183 41.3901 7.44239 41.1139 7.10198 41.1139C6.76129 41.1139 6.48535 41.3901 6.48535 41.7309C6.48535 42.0715 6.76126 42.3478 7.10198 42.3478C7.44239 42.3478 7.7183 42.0715 7.7183 41.7309Z" fill="#8387A3"/>
<path d="M7.85298 48.6827C7.85298 48.2675 7.51639 47.9308 7.10177 47.9308C6.68656 47.9308 6.35028 48.2675 6.35028 48.6827C6.35028 49.098 6.68656 49.4345 7.10177 49.4345C7.51639 49.4345 7.85298 49.098 7.85298 48.6827Z" fill="#8387A3"/>
<path d="M8.00722 55.6346C8.00722 55.1342 7.60203 54.7286 7.10202 54.7286C6.60201 54.7286 6.19623 55.1342 6.19623 55.6346C6.19623 56.1351 6.60201 56.5407 7.10202 56.5407C7.60203 56.5407 8.00722 56.1351 8.00722 55.6346Z" fill="#8387A3"/>
<path d="M8.16128 62.5866C8.16128 62.0011 7.68659 61.5264 7.10177 61.5264C6.51637 61.5264 6.04196 62.0011 6.04196 62.5866C6.04196 63.1722 6.51635 63.6469 7.10177 63.6469C7.68659 63.6469 8.16128 63.1722 8.16128 62.5866Z" fill="#8387A3"/>
<path d="M8.33463 69.5385C8.33463 68.8571 7.78279 68.3047 7.10196 68.3047C6.42086 68.3047 5.86871 68.8571 5.86871 69.5385C5.86871 70.2199 6.42086 70.7722 7.10196 70.7722C7.78279 70.7722 8.33463 70.2199 8.33463 69.5385Z" fill="#8387A3"/>
<path d="M8.52721 76.4904C8.52721 75.7026 7.88909 75.0639 7.10197 75.0639C6.31454 75.0639 5.67615 75.7026 5.67615 76.4904C5.67615 77.2783 6.31457 77.9169 7.10197 77.9169C7.88909 77.9169 8.52721 77.2783 8.52721 76.4904Z" fill="#8387A3"/>
<path d="M8.73902 83.4423C8.73902 82.5374 8.00578 81.8037 7.10176 81.8037C6.19714 81.8037 5.4639 82.5374 5.4639 83.4423C5.4639 84.3472 6.19714 85.0809 7.10176 85.0809C8.00578 85.0809 8.73902 84.3472 8.73902 83.4423Z" fill="#8387A3"/>
<path d="M8.98964 90.3942C8.98964 89.3508 8.14422 88.505 7.10177 88.505C6.05876 88.505 5.21362 89.3508 5.21362 90.3942C5.21362 91.4376 6.05876 92.2834 7.10177 92.2834C8.14419 92.2834 8.98964 91.4376 8.98964 90.3942Z" fill="#8387A3"/>
<path d="M7.10193 99.486C8.28296 99.486 9.24038 98.5279 9.24038 97.3461C9.24038 96.1643 8.28296 95.2063 7.10193 95.2063C5.92089 95.2063 4.96347 96.1643 4.96347 97.3461C4.96347 98.5279 5.92089 99.486 7.10193 99.486Z" fill="#8387A3"/>
<path d="M0.154908 13.9039C0.143807 13.9039 0.134857 13.9129 0.134857 13.924C0.134857 13.9351 0.143807 13.9442 0.154908 13.9442C0.166009 13.9442 0.175278 13.9351 0.175278 13.924C0.175278 13.9129 0.166009 13.9039 0.154908 13.9039Z" fill="#8387A3"/>
<path d="M0.154908 20.8558C0.143807 20.8558 0.134857 20.8648 0.134857 20.876C0.134857 20.887 0.143807 20.8961 0.154908 20.8961C0.166009 20.8961 0.175278 20.887 0.175278 20.876C0.175278 20.8648 0.166009 20.8558 0.154908 20.8558Z" fill="#8387A3"/>
<path d="M0.154908 27.8077C0.143807 27.8077 0.134857 27.8167 0.134857 27.8279C0.134857 27.8389 0.143807 27.848 0.154908 27.848C0.166009 27.848 0.175278 27.8389 0.175278 27.8279C0.175278 27.8167 0.166009 27.8077 0.154908 27.8077Z" fill="#8387A3"/>
<path d="M0.154908 34.7596C0.143807 34.7596 0.134857 34.7686 0.134857 34.7798C0.134857 34.7909 0.143807 34.7998 0.154908 34.7998C0.166009 34.7998 0.175278 34.7909 0.175278 34.7798C0.175278 34.7686 0.166009 34.7596 0.154908 34.7596Z" fill="#8387A3"/>
<path d="M0.154048 41.6923C0.132804 41.6923 0.115723 41.7095 0.115723 41.7308C0.115723 41.752 0.132829 41.7692 0.154048 41.7692C0.175571 41.7692 0.192982 41.752 0.192982 41.7308C0.192982 41.7095 0.175596 41.6923 0.154048 41.6923Z" fill="#8387A3"/>
<path d="M0.154048 48.6442C0.132804 48.6442 0.115723 48.6614 0.115723 48.6826C0.115723 48.7039 0.132829 48.7211 0.154048 48.7211C0.175571 48.7211 0.192982 48.7039 0.192982 48.6826C0.192982 48.6614 0.175596 48.6442 0.154048 48.6442Z" fill="#8387A3"/>
<path d="M0.154048 55.5961C0.132804 55.5961 0.115723 55.6133 0.115723 55.6345C0.115723 55.6558 0.132829 55.673 0.154048 55.673C0.175571 55.673 0.192982 55.6558 0.192982 55.6345C0.192982 55.6133 0.175596 55.5961 0.154048 55.5961Z" fill="#8387A3"/>
<path d="M0.15435 62.5287C0.122497 62.5287 0.0965576 62.5545 0.0965576 62.5864C0.0965576 62.6182 0.122497 62.6441 0.15435 62.6441C0.186483 62.6441 0.212447 62.6183 0.212447 62.5864C0.212447 62.5545 0.186508 62.5287 0.15435 62.5287Z" fill="#8387A3"/>
<path d="M0.15435 69.4807C0.122497 69.4807 0.0965576 69.5064 0.0965576 69.5383C0.0965576 69.5702 0.122497 69.5961 0.15435 69.5961C0.186483 69.5961 0.212447 69.5702 0.212447 69.5383C0.212447 69.5064 0.186508 69.4807 0.15435 69.4807Z" fill="#8387A3"/>
<path d="M0.15435 76.4325C0.122497 76.4325 0.0965576 76.4582 0.0965576 76.4901C0.0965576 76.522 0.122497 76.5479 0.15435 76.5479C0.186483 76.5479 0.212447 76.522 0.212447 76.4901C0.212447 76.4582 0.186508 76.4325 0.15435 76.4325Z" fill="#8387A3"/>
<path d="M0.154209 83.3652C0.111806 83.3652 0.0773621 83.3997 0.0773621 83.4423C0.0773621 83.4849 0.111806 83.5193 0.154209 83.5193C0.196916 83.5193 0.23136 83.4849 0.23136 83.4423C0.23136 83.3997 0.196916 83.3652 0.154209 83.3652Z" fill="#8387A3"/>
<path d="M0.154209 90.3172C0.111806 90.3172 0.0773621 90.3517 0.0773621 90.3942C0.0773621 90.4368 0.111806 90.4713 0.154209 90.4713C0.196916 90.4713 0.23136 90.4368 0.23136 90.3942C0.23136 90.3517 0.196916 90.3172 0.154209 90.3172Z" fill="#8387A3"/>
<path d="M0.154174 97.2498C0.101177 97.2498 0.0581665 97.293 0.0581665 97.3462C0.0581665 97.3994 0.101152 97.4425 0.154174 97.4425C0.207475 97.4425 0.250765 97.3994 0.250765 97.3462C0.250765 97.293 0.207475 97.2498 0.154174 97.2498Z" fill="#8387A3"/>
</g>
</g>
<defs>
<clipPath id="clip0_2033_4654">
<rect width="130" height="100" fill="white"/>
</clipPath>
<clipPath id="clip1_2033_4654">
<rect width="150" height="146.067" fill="white"/>
</clipPath>
</defs>
</svg>
